<?xml version="1.0" standalone="no"?>
<!DOCTYPE svg PUBLIC "-//W3C//DTD SVG 1.1//EN" "http://www.w3.org/Graphics/SVG/1.1/DTD/svg11.dtd" >
<svg xmlns="http://www.w3.org/2000/svg" xmlns:xlink="http://www.w3.org/1999/xlink" version="1.1">
<metadata>
Created by FontForge 20170731 at Thu Oct 21 09:43:26 2021
 By Aleksey,,,
Copyright (c) 2013 by Ivan Filipov, Neogrey Ltd. All rights reserved.
</metadata>
<defs>
<font id="RonduitCapitals-Light" horiz-adv-x="1705" >
  <font-face 
    font-family="Ronduit Capitals Light"
    font-weight="300"
    font-variant="small-caps"
    font-stretch="normal"
    units-per-em="2048"
    panose-1="2 0 0 0 0 0 0 0 0 0"
    ascent="1583"
    descent="-465"
    x-height="1501"
    cap-height="1501"
    bbox="-119 -395 3357 1991"
    underline-thickness="102"
    underline-position="-307"
    unicode-range="U+0020-20AC"
  />
<missing-glyph horiz-adv-x="1310" 
 />
    <glyph glyph-name="L_A" unicode="LA" horiz-adv-x="3135" 
d="M2025 1311l-512 -1311h-1140q-86 0 -147.5 61t-61.5 146v1294h74v-1294q0 -55 39.5 -94t95.5 -39h1089l496 1263q31 78 94 129q68 50 154 50q88 0 153 -50q66 -51 97 -129l522 -1337h-78l-178 455h-875v73h846l-307 783q-23 62 -71 97.5t-109 35.5q-60 0 -108 -35.5
t-73 -97.5z" />
    <glyph glyph-name="L_S" unicode="LS" horiz-adv-x="3063" 
d="M1335 0h-962q-86 0 -147.5 61t-61.5 146v1294h74v-1294q0 -55 39.5 -94t95.5 -39h962v-74zM2400 0h-1102v74h1102q96 0 156.5 55.5t60.5 144.5v179q0 7 -2 18t-13.5 35t-31.5 45t-62.5 42.5t-99.5 31.5v2l-778 176q-124 25 -205 67q-61 30 -96 74q-43 52 -43 121v147
q-2 127 78 207q36 39 86 61.5t100 22.5h1078v-73h-1078q-76 0 -133 -60q-59 -59 -57 -158v-147q0 -130 287 -191l776 -176q166 -33 233 -139q35 -56 35 -108v-177q0 -118 -84 -196q-78 -78 -207 -78z" />
    <glyph glyph-name="A_S" unicode="AS" horiz-adv-x="3520" 
d="M2988 0h-1427l-179 455h-1032l-176 -455h-80l524 1337q30 77 95 129q68 50 153 50q89 0 154 -50t96 -129l494 -1263h1378q96 0 156.5 55.5t60.5 144.5v179q0 7 -2 18t-13.5 35t-31.5 45t-62.5 42.5t-99.5 31.5l-778 178q-124 25 -205 67q-61 30 -96 74q-43 52 -43 121
v147q0 129 78 207q36 39 86 61.5t100 22.5h1077v-73h-1077q-76 0 -133 -60q-57 -57 -57 -149v-156q0 -130 286 -191l777 -176q169 -38 233 -139q35 -56 35 -108v-177q0 -117 -84 -198q-79 -76 -207 -76zM866 1444q-60 0 -107.5 -35.5t-72.5 -97.5l-307 -783h975l-307 783
q-23 62 -71.5 97.5t-109.5 35.5z" />
    <glyph glyph-name=".notdef" horiz-adv-x="1310" 
 />
    <glyph glyph-name=".null" horiz-adv-x="0" 
 />
    <glyph glyph-name="nonmarkingreturn" horiz-adv-x="682" 
 />
    <glyph glyph-name="space" unicode=" " horiz-adv-x="1048" 
 />
    <glyph glyph-name="exclam" unicode="!" horiz-adv-x="512" 
d="M238 410h-74v1095h74v-1095zM238 0h-74v215h74v-215z" />
    <glyph glyph-name="quotedbl" unicode="&#x22;" horiz-adv-x="344" 
d="M156 1372h-74v215h74v-215zM283 1372h-74v215h74v-215z" />
    <glyph glyph-name="numbersign" unicode="#" horiz-adv-x="1826" 
d="M1096 0h-86l114 467h-671l-115 -467h-86l115 467h-203v74h221l113 458h-334v74h352l105 428h86l-105 -428h672l104 428h86l-104 -428h235v-74h-254l-112 -458h366v-74h-385zM584 999l-113 -458h672l112 458h-671z" />
    <glyph glyph-name="dollar" unicode="$" horiz-adv-x="1775" 
d="M1278 0h-1102v74h1102q96 0 156.5 55.5t60.5 144.5v242q0 7 -2 18.5t-13.5 35.5t-31.5 44.5t-62 42t-98 31.5q-6 1 -117.5 16.5t-301 43t-357.5 53.5q-96 15 -167 47.5t-104 63.5t-52.5 68.5t-22 54.5t-2.5 30v145q-2 127 78 207q36 39 86 61.5t100 22.5h1090v-74h-1090
q-77 0 -133 -59q-59 -59 -57 -158v-147q0 -36 32 -76q72 -86 254 -113q175 -27 367 -55t298 -42.5t109 -14.5h2q167 -33 234 -139q35 -56 35 -109v-240q0 -118 -84 -196q-78 -78 -207 -78zM946 1454h-74v272h74v-272zM946 -225h-74v272h74v-272z" />
    <glyph glyph-name="uni0025" unicode="%" horiz-adv-x="1896" 
d="M483 0h-94l1024 1501h94zM610 803h-182q-106 0 -182 76t-76 182v182q0 107 76 183.5t182 76.5h182q107 0 182.5 -76.5t75.5 -183.5v-182q0 -106 -75.5 -182t-182.5 -76zM610 1430h-182q-76 0 -130 -55t-54 -132v-182q0 -77 54 -130.5t130 -53.5h182q77 0 132 54t55 130
v182q0 77 -55.5 132t-131.5 55zM1491 4h-182q-106 0 -182 76t-76 182v182q0 107 76 184t182 77h182q107 0 182.5 -76.5t75.5 -184.5v-182q0 -106 -75.5 -182t-182.5 -76zM1491 631h-182q-76 0 -130.5 -55t-54.5 -132v-182q0 -76 54 -130t131 -54h182q77 0 131.5 54t54.5 130
v182q0 77 -55 132t-131 55z" />
    <glyph glyph-name="ampersand" unicode="&#x26;" horiz-adv-x="2004" 
d="M1890 817v-74h-186v-419q0 -131 -82 -222q-88 -102 -225 -102h-926q-135 0 -225 100q-82 91 -82 219v181q0 123 82 217q32 35 61 53q-65 31 -104 93t-39 136v246q0 106 75 182t181 76h1151v-73h-1151q-75 0 -128.5 -54.5t-53.5 -130.5v-246q0 -75 53.5 -128.5
t128.5 -53.5h37h1433zM1632 324v419h-1175q-93 0 -156 -76t-63 -167v-181q0 -97 62.5 -171t170.5 -74h926q105 0 170 76t65 174z" />
    <glyph glyph-name="quotesingle" unicode="'" horiz-adv-x="155" 
d="M117 1372h-74v215h74v-215z" />
    <glyph glyph-name="parenleft" unicode="(" horiz-adv-x="491" 
d="M281 -88q-93 193 -144 412q-49 206 -49 426q0 214 47 428q48 217 141 411l66 -33q-183 -384 -182 -805.5t186 -805.5z" />
    <glyph glyph-name="parenright" unicode=")" horiz-adv-x="460" 
d="M154 -88l-66 33q185 384 186 805.5t-182 805.5l66 33q93 -194 141 -411q47 -214 47 -428q0 -220 -49 -426q-52 -223 -143 -412z" />
    <glyph glyph-name="asterisk" unicode="*" horiz-adv-x="997" 
d="M494 1364h-74v219h74v-219zM303 1055l-57 45l137 172l57 -45zM379 1290l-207 76l25 68l206 -74zM610 1055l-137 172l57 45l138 -172zM535 1290l-25 70l207 74l24 -68z" />
    <glyph glyph-name="plus" unicode="+" horiz-adv-x="1288" 
d="M651 254h-73v438h-414v74h414v395h73v-395h412v-74h-412v-438z" />
    <glyph glyph-name="comma" unicode="," horiz-adv-x="466" 
d="M158 -135l75 223h78l-75 -223h-78z" />
    <glyph glyph-name="hyphen" unicode="-" horiz-adv-x="841" 
d="M164 709v73h489v-73h-489z" />
    <glyph glyph-name="period" unicode="." horiz-adv-x="317" 
d="M203 0h-74v174h74v-174z" />
    <glyph glyph-name="slash" unicode="/" horiz-adv-x="1406" 
d="M299 0h-88l881 1501h88z" />
    <glyph glyph-name="zero" unicode="0" horiz-adv-x="1738" 
d="M1153 0h-600q-161 0 -275 114t-114 275v723q0 161 114 276t275 115h600q161 0 275 -115t114 -276v-723q0 -161 -114 -275t-275 -114zM1153 1430h-600q-130 0 -223.5 -93.5t-93.5 -224.5v-723q0 -130 93 -222.5t224 -92.5h600q131 0 224 92.5t93 222.5v723
q0 131 -93.5 224.5t-223.5 93.5z" />
    <glyph glyph-name="one" unicode="1" horiz-adv-x="925" 
d="M102 1427v74h308q86 0 147 -61t61 -146v-1294h-73v1294q0 55 -39.5 94t-95.5 39h-308z" />
    <glyph glyph-name="two" unicode="2" 
d="M1489 0h-1356v221q0 114 47 187q51 86 172 145q480 228 778 369q69 33 72 34q43 20 67 32.5t59 34t53 39.5t32 42.5t14 50.5v90q0 77 -54 131t-130 54h-1046v73h1046q106 0 181 -76t75 -182v-90q0 -94 -92 -166q-44 -35 -172 -98l-852 -406q-94 -44 -136 -106.5
t-42 -157.5v-147h1284v-74z" />
    <glyph glyph-name="three" unicode="3" horiz-adv-x="1681" 
d="M1466 999q0 -68 -33.5 -126.5t-89.5 -92.5q56 -34 89.5 -92.5t33.5 -126.5v-305q0 -106 -75 -181t-181 -75h-1046v74h1046q76 0 130.5 53.5t54.5 128.5v305q0 75 -54 128.5t-129 53.5h-2h-1046v74h1046h2q75 0 129 53.5t54 128.5v244q0 76 -54 130t-131 54h-1046v74h1046
q106 0 181 -76t75 -182v-244z" />
    <glyph glyph-name="four" unicode="4" horiz-adv-x="1880" 
d="M1726 621v-74h-198v-547h-72v547h-1137q-108 0 -159 82q-29 44 -30 103t20 91l325 678h82l-342 -708q-13 -23 -12.5 -60t18.5 -65q26 -47 98 -47h1137v880h72v-880h198z" />
    <glyph glyph-name="five" unicode="5" 
d="M1227 0h-1063v74h1063q76 0 130 53.5t54 128.5v346q0 75 -54 128.5t-130 53.5h-1063v719h1282v-73h-1208v-572h989q106 0 181 -75t75 -181v-346q0 -106 -75 -181t-181 -75z" />
    <glyph glyph-name="six" unicode="6" horiz-adv-x="1816" 
d="M1391 0h-971q-106 0 -181 75t-75 181v408v10v571q0 106 75 182t181 76h1190v-73h-1190q-75 0 -128.5 -54.5t-53.5 -130.5v-401q73 76 182 76h971q106 0 181 -75t75 -181v-408q0 -106 -75 -181t-181 -75zM1391 846h-971q-73 0 -126 -51t-56 -125v-414q0 -75 53.5 -128.5
t128.5 -53.5h971q76 0 130 53.5t54 128.5v408q0 75 -54 128.5t-130 53.5z" />
    <glyph glyph-name="seven" unicode="7" horiz-adv-x="1409" 
d="M512 446v-446h-74v446v35q0 151 82 226l658 577q32 32 32 76q0 3 -0.5 8.5t-5 16.5t-12.5 19.5t-24 15.5t-38 7h-1122v74h1122q75 0 119 -51q35 -44 35 -90q0 -73 -57 -127l-658 -582q-57 -52 -57 -168v-37z" />
    <glyph glyph-name="eight" unicode="8" horiz-adv-x="1802" 
d="M1606 999q0 -68 -33.5 -126.5t-89.5 -92.5q56 -34 89.5 -92.5t33.5 -126.5v-305q0 -106 -75 -181t-181 -75h-930q-106 0 -181 75t-75 181v305q0 68 33.5 126.5t89.5 92.5q-56 34 -89.5 92.5t-33.5 126.5v244q0 106 75 182t181 76h930q106 0 181 -76t75 -182v-244z
M1534 561q0 75 -53.5 128.5t-128.5 53.5h-934q-75 0 -127.5 -53.5t-52.5 -128.5v-305q0 -75 53.5 -128.5t128.5 -53.5h930q76 0 130 53.5t54 128.5v305zM418 817h934q75 0 128.5 53.5t53.5 128.5v244q0 77 -54 130.5t-130 53.5h-930q-75 0 -128.5 -54t-53.5 -130v-244
q0 -75 52.5 -128.5t127.5 -53.5z" />
    <glyph glyph-name="nine" unicode="9" horiz-adv-x="1826" 
d="M420 1503h971q106 0 181 -75t75 -181v-407v-11v-571q0 -106 -75 -182t-181 -76h-1190v74h1190q75 0 128.5 54t53.5 130v401q-75 -75 -182 -75h-971q-106 0 -181 75t-75 181v407q0 106 75 181t181 75zM420 657h971q73 0 126 51t56 123v416q0 75 -53.5 129t-128.5 54h-971
q-76 0 -130 -54t-54 -129v-407q0 -75 54 -129t130 -54z" />
    <glyph glyph-name="colon" unicode=":" horiz-adv-x="317" 
d="M203 6h-74v174h74v-174zM203 1079h-74v174h74v-174z" />
    <glyph glyph-name="semicolon" unicode=";" 
d="M236 -135h-78l75 223h78zM299 1083h-74v174h74v-174z" />
    <glyph glyph-name="less" unicode="&#x3c;" horiz-adv-x="1292" 
d="M913 115l-708 481l-2 2l-2 2q-41 41 -41 82t41 82h2l710 483l41 -61l-704 -479q-17 -14 -17 -25q0 -13 17 -27l704 -481z" />
    <glyph glyph-name="equal" unicode="=" horiz-adv-x="1005" 
d="M168 328v73h682v-73h-682zM168 655v74h682v-74h-682z" />
    <glyph glyph-name="greater" unicode="&#x3e;" horiz-adv-x="1107" 
d="M201 115l-41 59l704 481q17 14 17 27q0 11 -17 25l-704 479l41 61l710 -483h2q41 -41 41 -82t-41 -82l-2 -2l-2 -2z" />
    <glyph glyph-name="question" unicode="?" horiz-adv-x="1576" 
d="M569 270h-73v203q0 104 67 174q63 66 178 103l437 129q92 28 128.5 69t36.5 119v176q0 77 -53.5 130.5t-130.5 53.5h-1067v74h1067q106 0 181 -76t75 -182v-176q0 -110 -59 -172q-49 -52 -158 -86l-436 -129q-193 -61 -193 -207v-203zM569 0h-73v174h73v-174z" />
    <glyph glyph-name="at" unicode="@" horiz-adv-x="2045" 
d="M1776 -252h-1319q-74 0 -142.5 52t-108.5 128t-40 148v1028q-3 144 94 244q81 84 197 84h1065q118 0 196 -84q97 -97 94 -244v-832h-1052q-85 0 -160 72q-76 76 -76 158v221q0 79 78 151q76 66 158 66h448q89 0 166 -86q72 -82 72 -172v-336h293v758v2q3 112 -72 190
q-64 64 -145 64h-1065q-82 0 -146 -64q-74 -77 -71 -190v-2v-1028q0 -88 69 -170q71 -84 148 -84h1319v-74zM760 866q-56 0 -109 -47t-53 -96v-221q0 -52 53 -105q51 -51 109 -51h612v336q0 63 -53.5 123.5t-110.5 60.5h-448z" />
    <glyph glyph-name="A" unicode="A" horiz-adv-x="1822" 
d="M350 455l-176 -455h-80l524 1337q30 77 95 129q68 50 153 50q89 0 154 -50t96 -129l522 -1337h-77l-179 455h-1032zM866 1444q-60 0 -107.5 -35.5t-72.5 -97.5l-307 -783h975l-307 783q-23 62 -71.5 97.5t-109.5 35.5z" />
    <glyph glyph-name="B" unicode="B" horiz-adv-x="1855" 
d="M1493 754q62 -32 98.5 -93t36.5 -133v-272q0 -106 -75 -181t-181 -75h-1171v2h-37v1501h1188q106 0 181 -76t75 -182v-278q0 -65 -31 -122t-84 -91zM238 1430v-646h1114q76 0 130 54t54 129v278q0 77 -54 131t-130 54h-1114zM1556 256v272q0 75 -54 129t-130 54h-1134
v-637h1134q76 0 130 53.5t54 128.5z" />
    <glyph glyph-name="C" unicode="C" horiz-adv-x="1775" 
d="M1575 1503v-73h-1022q-130 0 -223.5 -93.5t-93.5 -224.5v-723q0 -130 93 -222.5t224 -92.5h1022v-74h-1022q-161 0 -275 114t-114 275v723q0 161 114 276t275 115h1022z" />
    <glyph glyph-name="D" unicode="D" horiz-adv-x="2002" 
d="M1378 0h-1214v1501h1214q161 0 275 -115t114 -276v-721q0 -161 -114 -275t-275 -114zM236 74h1142q131 0 224.5 92.5t93.5 222.5v721q0 130 -93.5 223.5t-224.5 93.5h-1142v-1353z" />
    <glyph glyph-name="E" unicode="E" horiz-adv-x="1716" 
d="M164 252v997q0 104 73.5 178t176.5 74h1112v-71h-1112q-73 0 -125.5 -53.5t-52.5 -127.5v-463h1212v-73h-1212v-461q0 -74 52 -126t126 -52h1112v-74h-1112q-103 0 -176.5 74t-73.5 178z" />
    <glyph glyph-name="F" unicode="F" horiz-adv-x="1560" 
d="M416 1430q-73 0 -125.5 -53.5t-52.5 -127.5v-438h1110v-74h-1110v-737h-72v1249q0 104 73.5 178t176.5 74h1009v-71h-1009z" />
    <glyph glyph-name="G" unicode="G" horiz-adv-x="1896" 
d="M1642 0h-1091q-160 0 -273.5 114t-113.5 275v719q0 161 112 276q114 117 275 117h1083v-74h-1083q-130 0 -222.5 -93.5t-92.5 -225.5v-719q0 -131 92 -223t223 -92h1020v637h-627v73h698v-784z" />
    <glyph glyph-name="H" unicode="H" horiz-adv-x="1884" 
d="M1636 0h-73v713h-1319v-713h-74v1501h74v-715h1319v715h73v-1501z" />
    <glyph glyph-name="I" unicode="I" horiz-adv-x="503" 
d="M260 0h-74v1501h74v-1501z" />
    <glyph glyph-name="J" unicode="J" horiz-adv-x="1230" 
d="M918 1501h71v-1112q0 -161 -114 -275t-275 -114h-477v74h477q131 0 224.5 92.5t93.5 222.5v1112z" />
    <glyph glyph-name="K" unicode="K" horiz-adv-x="1898" 
d="M1208 735q45 -35 107 -129l422 -606h-88l-394 565q-58 85 -96 116.5t-100 31.5h-821v-713h-72v1501h72v-715h821q62 0 100 32t96 118l394 565h90l-424 -606q-61 -93 -107 -131q-3 -2 -9 -7t-9 -7q9 -6 18 -15z" />
    <glyph glyph-name="L" unicode="L" horiz-adv-x="1503" 
d="M1335 0h-962q-86 0 -147.5 61t-61.5 146v1294h74v-1294q0 -55 39.5 -94t95.5 -39h962v-74z" />
    <glyph glyph-name="M" unicode="M" horiz-adv-x="2420" 
d="M2150 1356v-1356h-73v1356q0 55 -41 67q-22 7 -47 -2t-43 -35l-789 -1165l-788 1165q-17 26 -43 35t-47 2q-41 -12 -41 -67v-1356h-74v1356q0 54 26 90q20 33 66 47q47 16 94 -2q52 -20 80 -61l727 -1078l727 1078q28 41 80 61q46 18 94 2q42 -12 66 -47q26 -36 26 -90z
" />
    <glyph glyph-name="N" unicode="N" horiz-adv-x="1998" 
d="M238 1356v-1356h-74v1356q0 54 26 90q20 33 66 47q47 16 94 -2q50 -16 78 -61l1077 -1324v-2q19 -26 44.5 -34.5t47.5 -1.5q41 12 41 69v1364h74v-1364q0 -49 -26 -90q-26 -37 -66 -49q-50 -13 -94 4q-51 16 -80 59l-1075 1325h-2q-17 26 -43 35t-47 2q-41 -12 -41 -67z
" />
    <glyph glyph-name="O" unicode="O" horiz-adv-x="2215" 
d="M1522 0h-969q-161 0 -275 114t-114 275v723q0 161 114 276t275 115h969q161 0 275 -115t114 -276v-723q0 -161 -114 -275t-275 -114zM1522 1430h-969q-130 0 -223.5 -93.5t-93.5 -224.5v-723q0 -130 93 -222.5t224 -92.5h969q131 0 224 92.5t93 222.5v723
q0 131 -93.5 224.5t-223.5 93.5z" />
    <glyph glyph-name="P" unicode="P" horiz-adv-x="1759" 
d="M1292 578h-1050v-576h-74v1501h1124q106 0 181 -76t75 -182v-411q0 -106 -75 -181t-181 -75zM242 1430v-779h1050q76 0 130.5 54t54.5 129v411q0 77 -54.5 131t-130.5 54h-1050z" />
    <glyph glyph-name="Q" unicode="Q" horiz-adv-x="2066" 
d="M1063 -164h-74v164h-436q-161 0 -275 114t-114 275v723q0 161 114 276t275 115h907q161 0 275 -115t114 -276v-723q0 -161 -114 -275t-275 -114h-397v-164zM1460 1430h-907q-130 0 -223.5 -93.5t-93.5 -224.5v-723q0 -130 93 -222.5t224 -92.5h436v198h74v-198h397
q131 0 224.5 92.5t93.5 222.5v723q0 130 -94 224t-224 94z" />
    <glyph glyph-name="R" unicode="R" horiz-adv-x="1861" 
d="M1677 0h-92l-436 578h-909v-576h-74v1501h1192q106 0 181 -76t75 -182v-411q0 -106 -75 -181t-181 -75h-117zM240 1430v-779h1118q76 0 130 54t54 129v411q0 77 -54 131t-130 54h-1118z" />
    <glyph glyph-name="S" unicode="S" horiz-adv-x="1800" 
d="M1268 0h-1102v74h1102q96 0 156.5 55.5t60.5 144.5v179q0 7 -2 18t-13.5 35t-31.5 45t-62.5 42.5t-99.5 31.5v2l-778 176q-124 25 -205 67q-61 30 -96 74q-43 52 -43 121v147q-2 128 77 207q36 39 86.5 61.5t100.5 22.5h1077v-73h-1077q-76 0 -133 -60q-60 -60 -58 -158
v-147q0 -130 287 -191l776 -176q167 -33 234 -139q35 -56 35 -108v-177q0 -118 -84 -196q-78 -78 -207 -78z" />
    <glyph glyph-name="T" unicode="T" horiz-adv-x="1548" 
d="M750 0h-74v1427h-676v74h1427v-74h-677v-1427z" />
    <glyph glyph-name="U" unicode="U" horiz-adv-x="1939" 
d="M164 1501h72v-1112q0 -130 93 -222.5t224 -92.5h764q131 0 224 92.5t93 222.5v1112h72v-1112q0 -161 -114 -275t-275 -114h-764q-161 0 -275 114t-114 275v1112z" />
    <glyph glyph-name="V" unicode="V" horiz-adv-x="1820" 
d="M893 0q-91 0 -154 51q-66 48 -94 129l-520 1321h80l508 -1296q23 -62 71 -96.5t109 -34.5q60 0 107.5 34.5t72.5 96.5v2l510 1294h80l-522 -1321q-31 -81 -94 -129q-63 -51 -154 -51z" />
    <glyph glyph-name="W" unicode="W" horiz-adv-x="3203" 
d="M2286 -8q-85 0 -150 47q-56 47 -98 129v2v2l-467 1212q-16 46 -49 46t-49 -46l-467 -1214v-2q-41 -80 -99 -129q-65 -47 -149 -47q-91 0 -154 51q-66 48 -94 129l-520 1329h78l510 -1304q23 -62 71 -96.5t109 -34.5q60 0 102.5 31.5t77.5 101.5l467 1212q15 42 46.5 66
t70.5 24t70 -24t46 -66l467 -1212q35 -70 78 -101.5t103 -31.5q61 0 109 34.5t71 96.5l510 1304h80l-523 -1329q-28 -81 -94 -129q-63 -51 -153 -51z" />
    <glyph glyph-name="X" unicode="X" horiz-adv-x="1599" 
d="M1444 0h-94l-586 690l-584 -690h-98l633 748l-637 753h94l590 -698l590 698h100l-641 -756z" />
    <glyph glyph-name="Y" unicode="Y" horiz-adv-x="1816" 
d="M836 571v-571h-74v571q-37 5 -67 19.5t-58 43t-46 51t-48 65.5l-523 751h89l495 -708q60 -87 97.5 -118.5t97.5 -31.5q62 0 100 31.5t96 116.5l494 710h90l-524 -751q-58 -88 -107 -129q-50 -44 -112 -50z" />
    <glyph glyph-name="Z" unicode="Z" 
d="M1470 0h-1155q-78 0 -116 49q-35 38 -35 90q0 78 57 129v2l1149 1018q33 30 33 74q0 4 -0.5 9t-5 16.5t-12.5 20t-24 15.5t-38 7h-1122v73h1122q75 0 119 -51q35 -44 35 -90q0 -74 -58 -129l-1149 -1018q-32 -29 -32 -76q0 -4 0.5 -8t4.5 -15.5t11 -19.5t23 -15t38 -7
h1155v-74z" />
    <glyph glyph-name="bracketleft" unicode="[" horiz-adv-x="616" 
d="M236 1386v-1271q0 -19 12 -31q16 -12 31 -12h124v-72h-124q-49 0 -82 33t-33 82v1271q0 49 33 82t82 33h124v-71h-124q-14 0 -31 -13q-12 -12 -12 -31z" />
    <glyph glyph-name="backslash" unicode="\" horiz-adv-x="1431" 
d="M1180 0h-88l-881 1501h88z" />
    <glyph glyph-name="bracketright" unicode="]" horiz-adv-x="606" 
d="M332 115v1271q0 18 -13 31q-17 13 -30 13h-125v71h125q49 0 82 -33q32 -32 32 -82v-1271q0 -50 -32 -82q-33 -33 -82 -33h-125v72h125q14 0 30 12q13 13 13 31z" />
    <glyph glyph-name="underscore" unicode="_" horiz-adv-x="1175" 
d="M66 -74v74h1071v-74h-1071z" />
    <glyph glyph-name="grave" unicode="`" 
d="M924 1237h-88l-134 223h89z" />
    <glyph glyph-name="a" unicode="a" horiz-adv-x="1857" 
d="M727 1311l-512 -1311h-80l524 1337q30 77 95 129q68 50 153 50q89 0 154 -50t96 -129l522 -1337h-77l-179 455h-868v73h840l-308 783q-23 62 -71 97.5t-109 35.5q-60 0 -107.5 -35.5t-72.5 -97.5z" />
    <glyph glyph-name="b" unicode="b" horiz-adv-x="1796" 
d="M1409 756q62 -32 98.5 -93t36.5 -133v-274q0 -106 -75 -181t-181 -75h-1087v2h-37v1501h1104q106 0 181 -76t75 -182v-276q0 -65 -31 -122t-84 -91zM362 713v73h906q76 0 130 54t54 129v276q0 77 -54 131t-130 54h-1030v-1356h1050q76 0 130.5 53.5t54.5 128.5v274
q0 75 -54.5 129t-130.5 54h-926z" />
    <glyph glyph-name="c" unicode="c" horiz-adv-x="1775" 
d="M1575 1503v-73h-1022q-130 0 -223.5 -93.5t-93.5 -224.5v-723q0 -130 93 -222.5t224 -92.5h1022v-74h-1022q-161 0 -275 114t-114 275v723q0 161 114 276t275 115h1022z" />
    <glyph glyph-name="d" unicode="d" horiz-adv-x="1976" 
d="M236 0h-72v1501h1194q161 0 275 -115t114 -276v-721q0 -161 -114 -275t-275 -114h-996v74h996q131 0 224 92.5t93 222.5v721q0 130 -93.5 223.5t-223.5 93.5h-1122v-1427z" />
    <glyph glyph-name="e" unicode="e" horiz-adv-x="1691" 
d="M362 713v73h1086v-73h-1086zM236 1249v-997q0 -74 52 -126t126 -52h1112v-74h-1112q-103 0 -176.5 74t-73.5 178v997q0 104 73.5 178t176.5 74h1112v-71h-1112q-73 0 -125.5 -53.5t-52.5 -127.5z" />
    <glyph glyph-name="f" unicode="f" horiz-adv-x="1560" 
d="M416 1430q-73 0 -125.5 -53.5t-52.5 -127.5v-438h1110v-74h-1110v-737h-72v1249q0 104 73.5 178t176.5 74h1009v-71h-1009z" />
    <glyph glyph-name="g" unicode="g" horiz-adv-x="1896" 
d="M1642 0h-1091q-160 0 -273.5 114t-113.5 275v719q0 161 112 276q114 117 275 117h1083v-74h-1083q-130 0 -222.5 -93.5t-92.5 -225.5v-719q0 -131 92 -223t223 -92h1020v637h-627v73h698v-784z" />
    <glyph glyph-name="h" unicode="h" horiz-adv-x="1918" 
d="M1671 0h-74v713h-1235v73h1235v715h74v-1501zM238 0h-74v1501h74v-1501z" />
    <glyph glyph-name="i" unicode="i" horiz-adv-x="503" 
d="M260 0h-74v1501h74v-1501z" />
    <glyph glyph-name="j" unicode="j" horiz-adv-x="1230" 
d="M918 1501h71v-1112q0 -161 -114 -275t-275 -114h-477v74h477q131 0 224.5 92.5t93.5 222.5v1112z" />
    <glyph glyph-name="k" unicode="k" horiz-adv-x="1898" 
d="M236 1501v-1501h-72v1501h72zM362 713v73h695q62 0 100 32t96 118l394 565h90l-424 -606q-61 -93 -107 -131q-3 -2 -9 -7t-9 -7q9 -6 18 -15q45 -35 107 -129l422 -606h-88l-394 565q-58 85 -96 116.5t-100 31.5h-695z" />
    <glyph glyph-name="l" unicode="l" horiz-adv-x="1503" 
d="M1335 0h-962q-86 0 -147.5 61t-61.5 146v1294h74v-1294q0 -55 39.5 -94t95.5 -39h962v-74z" />
    <glyph glyph-name="m" unicode="m" horiz-adv-x="2304" 
d="M2023 0h-73v1386l-828 -1150h-59l-825 1150v-1386h-74v1501h82l848 -1182l848 1182h81v-1501z" />
    <glyph glyph-name="n" unicode="n" horiz-adv-x="2025" 
d="M1675 0l-1353 1409v-1407h-74v1499h88l1350 -1407v1407h73v-1501h-84z" />
    <glyph glyph-name="o" unicode="o" horiz-adv-x="2164" 
d="M1522 0h-969q-161 0 -275 114t-114 275v723q0 161 114 276t275 115h969q161 0 275 -115t114 -276v-723q0 -161 -114 -275t-275 -114zM1522 1430h-969q-130 0 -223.5 -93.5t-93.5 -224.5v-723q0 -130 93 -222.5t224 -92.5h969q131 0 224 92.5t93 222.5v723
q0 131 -93.5 224.5t-223.5 93.5z" />
    <glyph glyph-name="p" unicode="p" horiz-adv-x="1781" 
d="M238 1430v-1428h-74v1501h1124q106 0 181 -76t75 -182v-411q0 -106 -75 -181t-181 -75h-926v73h926q76 0 130.5 54t54.5 129v411q0 77 -54.5 131t-130.5 54h-1050z" />
    <glyph glyph-name="q" unicode="q" horiz-adv-x="2066" 
d="M1460 0h-907q-161 0 -275 114t-114 275v723q0 161 114 276t275 115h907q161 0 275 -115t114 -276v-723q0 -127 -80 -235l162 -154h-98l-109 104q-110 -104 -264 -104zM1460 1430h-907q-130 0 -223.5 -93.5t-93.5 -224.5v-723q0 -130 93 -222.5t224 -92.5h907
q123 0 211 82l-289 280h99l237 -231q60 83 60 184v723q0 130 -94 224t-224 94z" />
    <glyph glyph-name="r" unicode="r" horiz-adv-x="1888" 
d="M238 1430v-1428h-74v1501h1145q106 0 181 -76t75 -182v-411q0 -106 -75 -181t-181 -75h-117l436 -578h-92l-436 578h-738v73h947q76 0 130 54t54 129v411q0 77 -54 131t-130 54h-1071z" />
    <glyph glyph-name="s" unicode="s" 
d="M1268 0h-1102v74h1102q96 0 156.5 55.5t60.5 144.5v179q0 7 -2 18t-13.5 35t-31.5 45t-62.5 42.5t-99.5 31.5v2l-778 176q-124 25 -205 67q-61 30 -96 74q-43 52 -43 121v147q-2 128 77 207q36 39 86.5 61.5t100.5 22.5h1077v-73h-1077q-76 0 -133 -60q-60 -60 -58 -158
v-147q0 -130 287 -191l776 -176q167 -33 234 -139q35 -56 35 -108v-177q0 -118 -84 -196q-78 -78 -207 -78z" />
    <glyph glyph-name="t" unicode="t" horiz-adv-x="1548" 
d="M750 0h-74v1427h-676v74h1427v-74h-677v-1427z" />
    <glyph glyph-name="u" unicode="u" horiz-adv-x="1939" 
d="M164 1501h72v-1112q0 -130 93 -222.5t224 -92.5h764q131 0 224 92.5t93 222.5v1112h72v-1112q0 -161 -114 -275t-275 -114h-764q-161 0 -275 114t-114 275v1112z" />
    <glyph glyph-name="v" unicode="v" horiz-adv-x="1820" 
d="M893 0q-91 0 -154 51q-66 48 -94 129l-520 1321h80l508 -1296q23 -62 71 -96.5t109 -34.5q60 0 107.5 34.5t72.5 96.5v2l510 1294h80l-522 -1321q-31 -81 -94 -129q-63 -51 -154 -51z" />
    <glyph glyph-name="w" unicode="w" horiz-adv-x="3203" 
d="M2286 -8q-85 0 -150 47q-56 47 -98 129v2v2l-467 1212q-16 46 -49 46t-49 -46l-467 -1214v-2q-41 -80 -99 -129q-65 -47 -149 -47q-91 0 -154 51q-66 48 -94 129l-520 1329h78l510 -1304q23 -62 71 -96.5t109 -34.5q60 0 102.5 31.5t77.5 101.5l467 1212q15 42 46.5 66
t70.5 24t70 -24t46 -66l467 -1212q35 -70 78 -101.5t103 -31.5q61 0 109 34.5t71 96.5l510 1304h80l-523 -1329q-28 -81 -94 -129q-63 -51 -153 -51z" />
    <glyph glyph-name="x" unicode="x" horiz-adv-x="1599" 
d="M1444 0h-94l-586 690l-584 -690h-98l633 748l-637 753h94l590 -698l590 698h100l-641 -756z" />
    <glyph glyph-name="y" unicode="y" horiz-adv-x="1699" 
d="M799 569q-37 0 -69.5 10.5t-54 23t-48.5 41.5t-41 47.5t-43 58.5l-523 751h89l495 -708q60 -87 97.5 -118.5t97.5 -31.5q62 0 100 31.5t96 116.5l494 710h90l-524 -751q-58 -88 -107 -129q-61 -52 -149 -52zM836 0h-74v526h74v-526z" />
    <glyph glyph-name="z" unicode="z" 
d="M1470 0h-1155q-78 0 -116 49q-35 38 -35 90q0 78 57 129v2l1149 1018q33 30 33 74q0 4 -0.5 9t-5 16.5t-12.5 20t-24 15.5t-38 7h-1122v73h1122q75 0 119 -51q35 -44 35 -90q0 -74 -58 -129l-1149 -1018q-32 -29 -32 -76q0 -4 0.5 -8t4.5 -15.5t11 -19.5t23 -15t38 -7
h1155v-74z" />
    <glyph glyph-name="braceleft" unicode="{" horiz-adv-x="634" 
d="M498 0h-49q-73 0 -126 53t-53 127v428q0 44 -31.5 75.5t-74.5 31.5v73q43 0 74.5 31.5t31.5 75.5v428q0 74 53 127t126 53h49v-73h-49q-43 0 -74 -32t-31 -75v-428q0 -88 -72 -143q72 -55 72 -144v-428q0 -44 31 -75t74 -31h49v-74z" />
    <glyph glyph-name="bar" unicode="|" 
d="M260 -205h-74v1850h74v-1850z" />
    <glyph glyph-name="braceright" unicode="}" horiz-adv-x="530" 
d="M72 0v74h49q43 0 73.5 31t30.5 75v428q0 89 72 144q-72 55 -72 143v428q0 43 -31 75t-73 32h-49v73h49q73 0 125.5 -53t52.5 -127v-428q0 -44 32 -75.5t75 -31.5v-73q-43 0 -75 -31.5t-32 -75.5v-428q0 -74 -52.5 -127t-125.5 -53h-49z" />
    <glyph glyph-name="asciitilde" unicode="~" 
 />
    <glyph glyph-name="cent" unicode="&#xa2;" horiz-adv-x="1775" 
d="M924 -168h-74v168h-297q-161 0 -275 114t-114 275v723q0 161 114 276t275 115h297v142h74v-142h651v-73h-1022q-130 0 -223.5 -93.5t-93.5 -224.5v-723q0 -130 93 -222.5t224 -92.5h1022v-74h-651v-168z" />
    <glyph glyph-name="sterling" unicode="&#xa3;" horiz-adv-x="1533" 
d="M1382 74v-74h-1210v74q74 0 127 52.5t53 125.5v461h-182v73h182v463q0 104 73.5 178t176.5 74h496q104 0 178 -74t74 -178h-74q0 74 -52.5 127.5t-125.5 53.5h-496q-73 0 -125.5 -53.5t-52.5 -127.5v-463h883v-73h-883v-461q0 -104 -74 -178h1032z" />
    <glyph glyph-name="currency" unicode="&#xa4;" horiz-adv-x="1525" 
d="M1245 780q0 -199 -129 -346l199 -198l-51 -52l-199 199q-147 -129 -344 -129q-199 0 -346 129l-199 -199l-51 52l199 198q-129 147 -129 346t129 346l-199 199l51 51l199 -198q147 129 346 129q197 0 344 -129l199 198l51 -51l-199 -199q129 -147 129 -346zM399 461
q133 -133 322 -133q186 0 319 133q134 131 134 319q0 91 -35 174t-99 146q-133 133 -319 133q-189 0 -322 -133q-133 -130 -133 -320q0 -189 133 -319z" />
    <glyph glyph-name="yen" unicode="&#xa5;" horiz-adv-x="1816" 
d="M836 217v-217h-74v217h-297v74h297v110h-297v74h297v96q-37 5 -67 19.5t-58 43t-46 51t-48 65.5l-523 751h89l495 -708q60 -87 97.5 -118.5t97.5 -31.5q62 0 100 31.5t96 116.5l494 710h90l-524 -751q-58 -88 -107 -129q-50 -44 -112 -50v-96h311v-74h-311v-110h311v-74
h-311z" />
    <glyph glyph-name="dieresis" unicode="&#xa8;" 
d="M686 1239h-74v174h74v-174zM1014 1239h-74v174h74v-174z" />
    <glyph glyph-name="copyright" unicode="&#xa9;" horiz-adv-x="1226" 
d="M569 489q-188 0 -320 133.5t-132 321.5q0 189 131.5 321t320.5 132q92 0 176 -35.5t144.5 -96t96.5 -144.5t36 -177q0 -188 -133 -321.5t-320 -133.5zM569 1317q-155 0 -262.5 -109.5t-107.5 -263.5t107.5 -262.5t262.5 -108.5q152 0 260.5 108.5t108.5 262.5
t-108.5 263.5t-260.5 109.5zM692 1044q-22 91 -123 91q-68 0 -107.5 -45t-39.5 -138q0 -88 41.5 -133t105.5 -45q100 0 129 121h64q-9 -80 -62 -128t-139 -48q-93 0 -149 61t-56 181q0 101 57.5 166t155.5 65q78 0 130.5 -39t58.5 -109h-66z" />
    <glyph glyph-name="registered" unicode="&#xae;" horiz-adv-x="864" 
d="M432 854q-135 0 -229 95t-94 229q0 135 94 229t229 94q134 0 229 -94t95 -229q0 -134 -95 -229t-229 -95zM432 1444q-110 0 -188 -78t-78 -188q0 -109 78 -187t188 -78q109 0 186.5 78t77.5 187q0 110 -77.5 188t-186.5 78zM313 1350h154q104 0 104 -86q0 -56 -45 -78
q21 -10 29.5 -23t11.5 -39v-41q0 -39 11 -55h-52q-6 30 -6 39l-2 47q0 28 -14 38.5t-47 10.5h-97v-135h-47v322zM360 1313v-109h101q63 0 63 53q0 56 -61 56h-103z" />
    <glyph glyph-name="macron" unicode="&#xaf;" 
d="M557 1280v74h664v-74h-664z" />
    <glyph glyph-name="degree" unicode="&#xb0;" horiz-adv-x="653" 
d="M309 1217q-84 0 -143.5 59t-59.5 143q0 85 60 145t143 60q85 0 145 -60t60 -145q0 -84 -60 -143t-145 -59zM309 1550q-54 0 -91.5 -38.5t-37.5 -92.5t37.5 -92.5t91.5 -38.5q55 0 93 38.5t38 92.5t-38 92.5t-93 38.5z" />
    <glyph glyph-name="acute" unicode="&#xb4;" 
d="M872 1237h-88l134 223h88z" />
    <glyph glyph-name="periodcentered" unicode="&#xb7;" horiz-adv-x="317" 
d="M203 614h-74v174h74v-174z" />
    <glyph glyph-name="cedilla" unicode="&#xb8;" 
d="M1051 -395h-283v73h279q34 3 56.5 27.5t22.5 58.5t-23 60t-56 29h-222l68 196l70 -24l-35 -101h123h2q62 -3 104 -51q43 -43 43 -109q0 -65 -43 -108q-39 -44 -104 -51h-2z" />
    <glyph glyph-name="questiondown" unicode="&#xbf;" horiz-adv-x="1576" 
d="M569 1231v-203q0 -146 193 -207l436 -129q109 -34 158 -86q59 -62 59 -172v-176q0 -106 -75 -182t-181 -76h-1067v74h1067q77 0 130.5 54t53.5 130v176q0 78 -36.5 119.5t-128.5 69.5l-437 129q-116 37 -178 102q-67 70 -67 174v203h73zM496 1501h73v-174h-73v174z" />
    <glyph glyph-name="Agrave" unicode="&#xc0;" horiz-adv-x="1822" 
d="M174 0l176 455h1032l179 -455h77l-522 1337q-31 79 -96 129t-154 50q-85 0 -153 -50q-65 -52 -95 -129l-524 -1337h80zM866 1444q61 0 109.5 -35.5t71.5 -97.5l307 -783h-975l307 783q25 62 72.5 97.5t107.5 35.5zM979 1581h-88l-133 223h88z" />
    <glyph glyph-name="Aacute" unicode="&#xc1;" horiz-adv-x="1822" 
d="M350 455l-176 -455h-80l524 1337q30 77 95 129q68 50 153 50q89 0 154 -50t96 -129l522 -1337h-77l-179 455h-1032zM866 1444q-60 0 -107.5 -35.5t-72.5 -97.5l-307 -783h975l-307 783q-23 62 -71.5 97.5t-109.5 35.5zM889 1659h-88l133 223h88z" />
    <glyph glyph-name="Acircumflex" unicode="&#xc2;" horiz-adv-x="1822" 
d="M350 455l-176 -455h-80l524 1337q30 77 95 129q68 50 153 50q89 0 154 -50t96 -129l522 -1337h-77l-179 455h-1032zM866 1444q-60 0 -107.5 -35.5t-72.5 -97.5l-307 -783h975l-307 783q-23 62 -71.5 97.5t-109.5 35.5zM856 1798l270 -217h-114l-156 123l-158 -123h-118z
" />
    <glyph glyph-name="Atilde" unicode="&#xc3;" horiz-adv-x="1822" 
d="M350 455l-176 -455h-80l524 1337q30 77 95 129q68 50 153 50q89 0 154 -50t96 -129l522 -1337h-77l-179 455h-1032zM866 1444q-60 0 -107.5 -35.5t-72.5 -97.5l-307 -783h975l-307 783q-23 62 -71.5 97.5t-109.5 35.5zM1008 1599q-88 0 -158 46q-62 42 -148 32
q-79 -9 -133 -69l-55 49q73 80 178 92q107 15 197 -43q70 -42 147 -33q80 12 135 70l54 -49q-74 -80 -178 -92q-18 -3 -39 -3z" />
    <glyph glyph-name="Adieresis" unicode="&#xc4;" horiz-adv-x="1822" 
d="M350 455l-176 -455h-80l524 1337q30 77 95 129q68 50 153 50q89 0 154 -50t96 -129l522 -1337h-77l-179 455h-1032zM866 1444q-60 0 -107.5 -35.5t-72.5 -97.5l-307 -783h975l-307 783q-23 62 -71.5 97.5t-109.5 35.5zM733 1661h-74v174h74v-174zM1061 1661h-74v174h74
v-174z" />
    <glyph glyph-name="Aring" unicode="&#xc5;" horiz-adv-x="1822" 
d="M350 455l-176 -455h-80l524 1337q30 77 95 129q68 50 153 50q89 0 154 -50t96 -129l522 -1337h-77l-179 455h-1032zM866 1444q-60 0 -107.5 -35.5t-72.5 -97.5l-307 -783h975l-307 783q-23 62 -71.5 97.5t-109.5 35.5z" />
    <glyph glyph-name="AE" unicode="&#xc6;" horiz-adv-x="2893" 
d="M1352 1247v-463v-59h1194v-74h-1194v-401q0 -74 52 -126t126 -52h1112v-74h-1112q-103 0 -176.5 74t-73.5 178v401h-858l-254 -653h-80l524 1337q30 77 95 129q67 49 153 49q90 0 154 -49q30 -23 54 -52.5t32 -49.5l180 -471v356q0 104 73.5 178t176.5 74h1112v-72h-1112
q-73 0 -125.5 -53t-52.5 -127zM680 1309l-229 -584h815l-236 610q-16 43 -63.5 75t-106.5 32q-60 0 -107.5 -35.5t-72.5 -97.5z" />
    <glyph glyph-name="Ccedilla" unicode="&#xc7;" horiz-adv-x="1775" 
d="M997 -395h-284v73h278q34 3 57 27.5t23 58.5t-23 60t-57 29h-221l51 147h-268q-161 0 -275 114t-114 275v723q0 161 114 276t275 115h1022v-73h-1022q-130 0 -223.5 -93.5t-93.5 -224.5v-723q0 -130 93 -222.5t224 -92.5h1022v-74h-676l-27 -76h125q63 -3 105 -51
q43 -43 43 -109q0 -65 -43 -108q-38 -44 -105 -51z" />
    <glyph glyph-name="Egrave" unicode="&#xc8;" horiz-adv-x="1691" 
d="M164 252v997q0 104 73.5 178t176.5 74h1112v-71h-1112q-73 0 -125.5 -53.5t-52.5 -127.5v-463h1212v-73h-1212v-461q0 -74 52 -126t126 -52h1112v-74h-1112q-103 0 -176.5 74t-73.5 178zM936 1577h-88l-133 223h88z" />
    <glyph glyph-name="Eacute" unicode="&#xc9;" horiz-adv-x="1691" 
d="M164 252v997q0 104 73.5 178t176.5 74h1112v-71h-1112q-73 0 -125.5 -53.5t-52.5 -127.5v-463h1212v-73h-1212v-461q0 -74 52 -126t126 -52h1112v-74h-1112q-103 0 -176.5 74t-73.5 178zM823 1659h-88l133 223h88z" />
    <glyph glyph-name="Ecircumflex" unicode="&#xca;" horiz-adv-x="1800" 
d="M164 252v997q0 104 73.5 178t176.5 74h1112v-71h-1112q-73 0 -125.5 -53.5t-52.5 -127.5v-463h1212v-73h-1212v-461q0 -74 52 -126t126 -52h1112v-74h-1112q-103 0 -176.5 74t-73.5 178zM862 1798l271 -217h-115l-156 123l-157 -123h-119z" />
    <glyph glyph-name="Edieresis" unicode="&#xcb;" horiz-adv-x="1691" 
d="M164 252v997q0 104 73.5 178t176.5 74h1112v-71h-1112q-73 0 -125.5 -53.5t-52.5 -127.5v-463h1212v-73h-1212v-461q0 -74 52 -126t126 -52h1112v-74h-1112q-103 0 -176.5 74t-73.5 178zM702 1577h-73v174h73v-174zM1030 1577h-74v174h74v-174z" />
    <glyph glyph-name="Igrave" unicode="&#xcc;" horiz-adv-x="591" 
d="M211 0h74v1501h-74v-1501zM348 1577h-88l-133 223h88z" />
    <glyph glyph-name="Iacute" unicode="&#xcd;" horiz-adv-x="591" 
d="M285 0h-74v1501h74v-1501zM274 1587h-88l133 223h89z" />
    <glyph glyph-name="Icircumflex" unicode="&#xce;" horiz-adv-x="591" 
d="M285 0h-74v1501h74v-1501zM254 1794l270 -217h-114l-156 123l-158 -123h-119z" />
    <glyph glyph-name="Idieresis" unicode="&#xcf;" horiz-adv-x="495" 
d="M285 0h-74v1501h74v-1501zM111 1579h-74v174h74v-174zM438 1579h-73v174h73v-174z" />
    <glyph glyph-name="Eth" unicode="&#xd0;" horiz-adv-x="2011" 
d="M1378 0h-1214v748h-242v73h242v680h1214q161 0 275 -115t114 -276v-721q0 -161 -114 -275t-275 -114zM236 74h1142q131 0 224.5 92.5t93.5 222.5v721q0 130 -93.5 223.5t-224.5 93.5h-1142v-606h675v-73h-675v-674z" />
    <glyph glyph-name="Ntilde" unicode="&#xd1;" horiz-adv-x="1986" 
d="M238 1356v-1356h-74v1356q0 54 26 90q20 33 66 47q47 16 94 -2q50 -16 78 -61l1077 -1324v-2q19 -26 44.5 -34.5t47.5 -1.5q41 12 41 69v1364h74v-1364q0 -49 -26 -90q-26 -37 -66 -49q-50 -13 -94 4q-51 16 -80 59l-1075 1325h-2q-17 26 -43 35t-47 2q-41 -12 -41 -67z
M1081 1579q-89 0 -157 45q-64 43 -148 33q-78 -9 -133 -70l-55 49q74 81 178 93q107 15 197 -43q70 -42 147 -33q81 12 135 69l53 -49q-74 -80 -178 -92q-12 -2 -39 -2z" />
    <glyph glyph-name="Ograve" unicode="&#xd2;" horiz-adv-x="2025" 
d="M1522 0q161 0 275 114t114 275v723q0 161 -114 276t-275 115h-969q-161 0 -275 -115t-114 -276v-723q0 -161 114 -275t275 -114h969zM553 1430h969q130 0 223.5 -93.5t93.5 -224.5v-723q0 -130 -93 -222.5t-224 -92.5h-969q-131 0 -224 92.5t-93 222.5v723
q0 131 93.5 224.5t223.5 93.5zM1081 1577h-88l-133 223h88z" />
    <glyph glyph-name="Oacute" unicode="&#xd3;" horiz-adv-x="2025" 
d="M1522 0h-969q-161 0 -275 114t-114 275v723q0 161 114 276t275 115h969q161 0 275 -115t114 -276v-723q0 -161 -114 -275t-275 -114zM1522 1430h-969q-130 0 -223.5 -93.5t-93.5 -224.5v-723q0 -130 93 -222.5t224 -92.5h969q131 0 224 92.5t93 222.5v723
q0 131 -93.5 224.5t-223.5 93.5zM989 1659h-88l133 223h88z" />
    <glyph glyph-name="Ocircumflex" unicode="&#xd4;" horiz-adv-x="2025" 
d="M1522 0h-969q-161 0 -275 114t-114 275v723q0 161 114 276t275 115h969q161 0 275 -115t114 -276v-723q0 -161 -114 -275t-275 -114zM1522 1430h-969q-130 0 -223.5 -93.5t-93.5 -224.5v-723q0 -130 93 -222.5t224 -92.5h969q131 0 224 92.5t93 222.5v723
q0 131 -93.5 224.5t-223.5 93.5zM1016 1792l270 -217h-115l-155 123l-158 -123h-119z" />
    <glyph glyph-name="Otilde" unicode="&#xd5;" horiz-adv-x="2025" 
d="M1522 0h-969q-161 0 -275 114t-114 275v723q0 161 114 276t275 115h969q161 0 275 -115t114 -276v-723q0 -161 -114 -275t-275 -114zM1522 1430h-969q-130 0 -223.5 -93.5t-93.5 -224.5v-723q0 -130 93 -222.5t224 -92.5h969q131 0 224 92.5t93 222.5v723
q0 131 -93.5 224.5t-223.5 93.5zM1151 1620q-90 0 -158 45q-63 43 -147 33q-78 -9 -133 -70l-56 49q73 80 179 92q106 15 196 -43q69 -41 148 -32q81 12 135 69l53 -49q-74 -80 -178 -92q-12 -2 -39 -2z" />
    <glyph glyph-name="Odieresis" unicode="&#xd6;" horiz-adv-x="2025" 
d="M1522 0h-969q-161 0 -275 114t-114 275v723q0 161 114 276t275 115h969q161 0 275 -115t114 -276v-723q0 -161 -114 -275t-275 -114zM1522 1430h-969q-130 0 -223.5 -93.5t-93.5 -224.5v-723q0 -130 93 -222.5t224 -92.5h969q131 0 224 92.5t93 222.5v723
q0 131 -93.5 224.5t-223.5 93.5zM864 1661h-73v174h73v-174zM1192 1661h-74v174h74v-174z" />
    <glyph glyph-name="Oslash" unicode="&#xd8;" horiz-adv-x="2025" 
d="M1522 0h-994q-154 9 -259 121.5t-105 267.5v723q0 161 114 276t275 115h969q161 0 275 -115t114 -276v-723q0 -161 -114 -275t-275 -114zM659 74h863q131 0 224 92.5t93 222.5v723q0 131 -93.5 224.5t-223.5 93.5h-68zM1366 1430h-813q-130 0 -223.5 -93.5t-93.5 -224.5
v-723q0 -130 93 -222.5t224 -92.5h18z" />
    <glyph glyph-name="Ugrave" unicode="&#xd9;" horiz-adv-x="1939" 
d="M236 1501h-72v-1112q0 -161 114 -275t275 -114h764q161 0 275 114t114 275v1112h-72v-1112q0 -130 -93 -222.5t-224 -92.5h-764q-131 0 -224 92.5t-93 222.5v1112zM991 1581h-88l-133 223h88z" />
    <glyph glyph-name="Uacute" unicode="&#xda;" horiz-adv-x="1939" 
d="M164 1501h72v-1112q0 -130 93 -222.5t224 -92.5h764q131 0 224 92.5t93 222.5v1112h72v-1112q0 -161 -114 -275t-275 -114h-764q-161 0 -275 114t-114 275v1112zM946 1577h-88l133 223h88z" />
    <glyph glyph-name="Ucircumflex" unicode="&#xdb;" horiz-adv-x="1939" 
d="M164 1501h72v-1112q0 -130 93 -222.5t224 -92.5h764q131 0 224 92.5t93 222.5v1112h72v-1112q0 -161 -114 -275t-275 -114h-764q-161 0 -275 114t-114 275v1112zM920 1802l270 -217h-115l-155 123l-158 -123h-119z" />
    <glyph glyph-name="Udieresis" unicode="&#xdc;" horiz-adv-x="1939" 
d="M164 1501h72v-1112q0 -130 93 -222.5t224 -92.5h764q131 0 224 92.5t93 222.5v1112h72v-1112q0 -161 -114 -275t-275 -114h-764q-161 0 -275 114t-114 275v1112zM788 1581h-73v174h73v-174zM1116 1581h-74v174h74v-174z" />
    <glyph glyph-name="Yacute" unicode="&#xdd;" horiz-adv-x="1816" 
d="M836 571v-571h-74v571q-37 5 -67 19.5t-58 43t-46 51t-48 65.5l-523 751h89l495 -708q60 -87 97.5 -118.5t97.5 -31.5q62 0 100 31.5t96 116.5l494 710h90l-524 -751q-58 -88 -107 -129q-50 -44 -112 -50zM782 1577h-88l133 223h88z" />
    <glyph glyph-name="Thorn" unicode="&#xde;" horiz-adv-x="1339" 
d="M766 1413q161 0 275 -115t114 -276v-516q0 -161 -114 -275t-275 -114h-528v-307h-74v1849h74v-246h528zM1083 506v516q0 130 -93.5 223.5t-223.5 93.5h-528v-1149h528q131 0 224 93t93 223z" />
    <glyph glyph-name="agrave" unicode="&#xe0;" horiz-adv-x="1822" 
d="M215 0l512 1311q25 62 72.5 97.5t107.5 35.5q61 0 109 -35.5t71 -97.5l308 -783h-840v-73h868l179 -455h77l-522 1337q-31 79 -96 129t-154 50q-85 0 -153 -50q-65 -52 -95 -129l-524 -1337h80zM975 1585h-88l-133 223h88z" />
    <glyph glyph-name="aacute" unicode="&#xe1;" horiz-adv-x="1822" 
d="M727 1311l-512 -1311h-80l524 1337q30 77 95 129q68 50 153 50q89 0 154 -50t96 -129l522 -1337h-77l-179 455h-868v73h840l-308 783q-23 62 -71 97.5t-109 35.5q-60 0 -107.5 -35.5t-72.5 -97.5zM850 1585h-88l133 223h88z" />
    <glyph glyph-name="acircumflex" unicode="&#xe2;" horiz-adv-x="1822" 
d="M727 1311l-512 -1311h-80l524 1337q30 77 95 129q68 50 153 50q89 0 154 -50t96 -129l522 -1337h-77l-179 455h-868v73h840l-308 783q-23 62 -71 97.5t-109 35.5q-60 0 -107.5 -35.5t-72.5 -97.5zM874 1804l271 -217h-115l-156 123l-157 -123h-119z" />
    <glyph glyph-name="atilde" unicode="&#xe3;" horiz-adv-x="1822" 
d="M727 1311l-512 -1311h-80l524 1337q30 77 95 129q68 50 153 50q89 0 154 -50t96 -129l522 -1337h-77l-179 455h-868v73h840l-308 783q-23 62 -71 97.5t-109 35.5q-60 0 -107.5 -35.5t-72.5 -97.5zM1024 1587q-90 0 -158 45q-63 43 -147 33q-78 -9 -133 -70l-56 50
q73 80 179 92q106 15 196 -43q70 -42 148 -33q80 12 135 70l53 -50q-74 -80 -178 -92q-12 -2 -39 -2z" />
    <glyph glyph-name="adieresis" unicode="&#xe4;" horiz-adv-x="1822" 
d="M727 1311l-512 -1311h-80l524 1337q30 77 95 129q68 50 153 50q89 0 154 -50t96 -129l522 -1337h-77l-179 455h-868v73h840l-308 783q-23 62 -71 97.5t-109 35.5q-60 0 -107.5 -35.5t-72.5 -97.5zM737 1583h-73v174h73v-174zM1065 1583h-74v174h74v-174z" />
    <glyph glyph-name="aring" unicode="&#xe5;" horiz-adv-x="1822" 
d="M727 1311l-512 -1311h-80l524 1337q30 77 95 129q68 50 153 50q89 0 154 -50t96 -129l522 -1337h-77l-179 455h-868v73h840l-308 783q-23 62 -71 97.5t-109 35.5q-60 0 -107.5 -35.5t-72.5 -97.5zM866 1591q-64 0 -109.5 45.5t-45.5 110.5t45.5 110.5t109.5 45.5
q63 0 108.5 -46t45.5 -110t-45.5 -110t-108.5 -46zM866 1837q-38 0 -65 -26.5t-27 -63.5q0 -38 27 -64t65 -26q37 0 63.5 26t26.5 64q0 37 -26.5 63.5t-63.5 26.5z" />
    <glyph glyph-name="ae" unicode="&#xe6;" horiz-adv-x="2893" 
d="M1352 1247v-463v-59h1194v-74h-1194v-401q0 -74 52 -126t126 -52h1112v-74h-1112q-103 0 -176.5 74t-73.5 178v401h-858l-254 -653h-80l524 1337q30 77 95 129q67 49 153 49q90 0 154 -49q30 -23 54 -52.5t32 -49.5l180 -471v356q0 104 73.5 178t176.5 74h1112v-72h-1112
q-73 0 -125.5 -53t-52.5 -127zM680 1309l-229 -584h815l-236 610q-16 43 -63.5 75t-106.5 32q-60 0 -107.5 -35.5t-72.5 -97.5z" />
    <glyph glyph-name="ccedilla" unicode="&#xe7;" horiz-adv-x="1775" 
d="M956 -395h-284v73h278q34 3 57 27.5t23 58.5t-23 60t-57 29h-221l51 147h-227q-161 0 -275 114t-114 275v723q0 161 114 276t275 115h1022v-73h-1022q-130 0 -223.5 -93.5t-93.5 -224.5v-723q0 -130 93 -222.5t224 -92.5h1022v-74h-717l-27 -76h125q63 -3 105 -51
q43 -43 43 -109q0 -65 -43 -108q-38 -44 -105 -51z" />
    <glyph glyph-name="egrave" unicode="&#xe8;" horiz-adv-x="1691" 
d="M362 713v73h1086v-73h-1086zM236 1249v-997q0 -74 52 -126t126 -52h1112v-74h-1112q-103 0 -176.5 74t-73.5 178v997q0 104 73.5 178t176.5 74h1112v-71h-1112q-73 0 -125.5 -53.5t-52.5 -127.5zM956 1585h-88l-133 223h88z" />
    <glyph glyph-name="eacute" unicode="&#xe9;" horiz-adv-x="1691" 
d="M362 713v73h1086v-73h-1086zM236 1249v-997q0 -74 52 -126t126 -52h1112v-74h-1112q-103 0 -176.5 74t-73.5 178v997q0 104 73.5 178t176.5 74h1112v-71h-1112q-73 0 -125.5 -53.5t-52.5 -127.5zM823 1585h-88l133 223h88z" />
    <glyph glyph-name="ecircumflex" unicode="&#xea;" horiz-adv-x="1691" 
d="M362 713v73h1086v-73h-1086zM236 1249v-997q0 -74 52 -126t126 -52h1112v-74h-1112q-103 0 -176.5 74t-73.5 178v997q0 104 73.5 178t176.5 74h1112v-71h-1112q-73 0 -125.5 -53.5t-52.5 -127.5zM868 1800l271 -217h-115l-156 123l-157 -123h-119z" />
    <glyph glyph-name="edieresis" unicode="&#xeb;" horiz-adv-x="1691" 
d="M362 713v73h1086v-73h-1086zM236 1249v-997q0 -74 52 -126t126 -52h1112v-74h-1112q-103 0 -176.5 74t-73.5 178v997q0 104 73.5 178t176.5 74h1112v-71h-1112q-73 0 -125.5 -53.5t-52.5 -127.5zM719 1587h-74v174h74v-174zM1047 1587h-74v174h74v-174z" />
    <glyph glyph-name="igrave" unicode="&#xec;" horiz-adv-x="503" 
d="M186 0h74v1501h-74v-1501zM336 1606h-88l-133 223h88z" />
    <glyph glyph-name="iacute" unicode="&#xed;" horiz-adv-x="503" 
d="M260 0h-74v1501h74v-1501zM207 1585h-88l133 223h88z" />
    <glyph glyph-name="icircumflex" unicode="&#xee;" horiz-adv-x="503" 
d="M260 0h-74v1501h74v-1501zM231 1800l271 -217h-115l-156 123l-157 -123h-119z" />
    <glyph glyph-name="idieresis" unicode="&#xef;" horiz-adv-x="503" 
d="M260 0h-74v1501h74v-1501zM100 1587h-73v174h73v-174zM428 1587h-74v174h74v-174z" />
    <glyph glyph-name="ntilde" unicode="&#xf1;" horiz-adv-x="1986" 
d="M1675 0l-1353 1409v-1407h-74v1499h88l1350 -1407v1407h73v-1501h-84zM1126 1571q-89 0 -157 45q-64 43 -148 33q-78 -9 -133 -70l-55 49q73 80 178 92q107 15 197 -43q69 -41 147 -32q81 12 135 69l53 -49q-74 -80 -178 -92q-12 -2 -39 -2z" />
    <glyph glyph-name="ograve" unicode="&#xf2;" horiz-adv-x="2025" 
d="M1522 0q161 0 275 114t114 275v723q0 161 -114 276t-275 115h-969q-161 0 -275 -115t-114 -276v-723q0 -161 114 -275t275 -114h969zM553 1430h969q130 0 223.5 -93.5t93.5 -224.5v-723q0 -130 -93 -222.5t-224 -92.5h-969q-131 0 -224 92.5t-93 222.5v723
q0 131 93.5 224.5t223.5 93.5zM1114 1585h-88l-133 223h88z" />
    <glyph glyph-name="oacute" unicode="&#xf3;" horiz-adv-x="2025" 
d="M1522 0h-969q-161 0 -275 114t-114 275v723q0 161 114 276t275 115h969q161 0 275 -115t114 -276v-723q0 -161 -114 -275t-275 -114zM1522 1430h-969q-130 0 -223.5 -93.5t-93.5 -224.5v-723q0 -130 93 -222.5t224 -92.5h969q131 0 224 92.5t93 222.5v723
q0 131 -93.5 224.5t-223.5 93.5zM989 1585h-88l133 223h88z" />
    <glyph glyph-name="ocircumflex" unicode="&#xf4;" horiz-adv-x="2025" 
d="M1522 0h-969q-161 0 -275 114t-114 275v723q0 161 114 276t275 115h969q161 0 275 -115t114 -276v-723q0 -161 -114 -275t-275 -114zM1522 1430h-969q-130 0 -223.5 -93.5t-93.5 -224.5v-723q0 -130 93 -222.5t224 -92.5h969q131 0 224 92.5t93 222.5v723
q0 131 -93.5 224.5t-223.5 93.5zM1010 1804l270 -217h-115l-155 123l-158 -123h-119z" />
    <glyph glyph-name="otilde" unicode="&#xf5;" horiz-adv-x="2025" 
d="M1522 0h-969q-161 0 -275 114t-114 275v723q0 161 114 276t275 115h969q161 0 275 -115t114 -276v-723q0 -161 -114 -275t-275 -114zM1522 1430h-969q-130 0 -223.5 -93.5t-93.5 -224.5v-723q0 -130 93 -222.5t224 -92.5h969q131 0 224 92.5t93 222.5v723
q0 131 -93.5 224.5t-223.5 93.5zM1143 1587q-90 0 -158 45q-63 43 -147 33q-78 -9 -133 -70l-56 50q73 80 178 92q107 15 197 -43q70 -42 147 -33q81 12 136 70l53 -50q-74 -80 -178 -92q-12 -2 -39 -2z" />
    <glyph glyph-name="odieresis" unicode="&#xf6;" horiz-adv-x="2025" 
d="M1522 0h-969q-161 0 -275 114t-114 275v723q0 161 114 276t275 115h969q161 0 275 -115t114 -276v-723q0 -161 -114 -275t-275 -114zM1522 1430h-969q-130 0 -223.5 -93.5t-93.5 -224.5v-723q0 -130 93 -222.5t224 -92.5h969q131 0 224 92.5t93 222.5v723
q0 131 -93.5 224.5t-223.5 93.5zM866 1587h-73v174h73v-174zM1194 1587h-74v174h74v-174z" />
    <glyph glyph-name="oslash" unicode="&#xf8;" horiz-adv-x="2025" 
d="M1522 0h-969q-161 0 -275 114t-114 275v723q0 161 114 276t275 115h969q161 0 275 -115t114 -276v-723q0 -161 -114 -275t-275 -114zM1522 1430h-969q-130 0 -223.5 -93.5t-93.5 -224.5v-723q0 -130 93 -222.5t224 -92.5h969q131 0 224 92.5t93 222.5v723
q0 131 -93.5 224.5t-223.5 93.5zM616 0h-88l881 1501h88z" />
    <glyph glyph-name="ugrave" unicode="&#xf9;" horiz-adv-x="1939" 
d="M236 1501h-72v-1112q0 -161 114 -275t275 -114h764q161 0 275 114t114 275v1112h-72v-1112q0 -130 -93 -222.5t-224 -92.5h-764q-131 0 -224 92.5t-93 222.5v1112zM1036 1587h-88l-133 223h88z" />
    <glyph glyph-name="uacute" unicode="&#xfa;" horiz-adv-x="1939" 
d="M164 1501h72v-1112q0 -130 93 -222.5t224 -92.5h764q131 0 224 92.5t93 222.5v1112h72v-1112q0 -161 -114 -275t-275 -114h-764q-161 0 -275 114t-114 275v1112zM944 1585h-88l133 223h88z" />
    <glyph glyph-name="ucircumflex" unicode="&#xfb;" horiz-adv-x="1939" 
d="M164 1501h72v-1112q0 -130 93 -222.5t224 -92.5h764q131 0 224 92.5t93 222.5v1112h72v-1112q0 -161 -114 -275t-275 -114h-764q-161 0 -275 114t-114 275v1112zM965 1800l270 -217h-115l-155 123l-158 -123h-119z" />
    <glyph glyph-name="udieresis" unicode="&#xfc;" horiz-adv-x="1939" 
d="M164 1501h72v-1112q0 -130 93 -222.5t224 -92.5h764q131 0 224 92.5t93 222.5v1112h72v-1112q0 -161 -114 -275t-275 -114h-764q-161 0 -275 114t-114 275v1112zM821 1505h-73v174h73v-174zM1149 1505h-74v174h74v-174z" />
    <glyph glyph-name="yacute" unicode="&#xfd;" horiz-adv-x="1699" 
d="M799 569q-37 0 -69.5 10.5t-54 23t-48.5 41.5t-41 47.5t-43 58.5l-523 751h89l495 -708q60 -87 97.5 -118.5t97.5 -31.5q62 0 100 31.5t96 116.5l494 710h90l-524 -751q-58 -88 -107 -129q-61 -52 -149 -52zM836 0h-74v526h74v-526zM782 1538h-88l133 223h88z" />
    <glyph glyph-name="thorn" unicode="&#xfe;" horiz-adv-x="1343" 
d="M766 1413q161 0 275 -115t114 -276v-516q0 -161 -114 -275t-275 -114h-528v-307h-74v1849h74v-246h528zM1083 506v516q0 130 -93.5 223.5t-223.5 93.5h-528v-1149h528q131 0 224 93t93 223z" />
    <glyph glyph-name="ydieresis" unicode="&#xff;" horiz-adv-x="1816" 
d="M799 569q-37 0 -69.5 10.5t-54 23t-48.5 41.5t-41 47.5t-43 58.5l-523 751h89l495 -708q60 -87 97.5 -118.5t97.5 -31.5q62 0 100 31.5t96 116.5l494 710h90l-524 -751q-58 -88 -107 -129q-61 -52 -149 -52zM836 0h-74v526h74v-526zM670 1587h-74v174h74v-174zM997 1587
h-73v174h73v-174z" />
    <glyph glyph-name="Amacron" unicode="&#x100;" horiz-adv-x="1822" 
d="M350 455l-176 -455h-80l524 1337q30 77 95 129q68 50 153 50q89 0 154 -50t96 -129l522 -1337h-77l-179 455h-1032zM866 1444q-60 0 -107.5 -35.5t-72.5 -97.5l-307 -783h975l-307 783q-23 62 -71.5 97.5t-109.5 35.5zM537 1653v73h663v-73h-663z" />
    <glyph glyph-name="amacron" unicode="&#x101;" horiz-adv-x="1822" 
d="M727 1311l-512 -1311h-80l524 1337q30 77 95 129q68 50 153 50q89 0 154 -50t96 -129l522 -1337h-77l-179 455h-868v73h840l-308 783q-23 62 -71 97.5t-109 35.5q-60 0 -107.5 -35.5t-72.5 -97.5zM590 1655v74h663v-74h-663z" />
    <glyph glyph-name="Abreve" unicode="&#x102;" horiz-adv-x="1822" 
d="M350 455l-176 -455h-80l524 1337q30 77 95 129q68 50 153 50q89 0 154 -50t96 -129l522 -1337h-77l-179 455h-1032zM866 1444q-60 0 -107.5 -35.5t-72.5 -97.5l-307 -783h975l-307 783q-23 62 -71.5 97.5t-109.5 35.5zM989 1655h-244q-67 0 -126 34t-93 93l64 37
q23 -42 64.5 -66t90.5 -24h244q47 0 89 24.5t67 65.5l63 -37q-34 -59 -93 -93t-126 -34z" />
    <glyph glyph-name="abreve" unicode="&#x103;" horiz-adv-x="1822" 
d="M727 1311l-512 -1311h-80l524 1337q30 77 95 129q68 50 153 50q89 0 154 -50t96 -129l522 -1337h-77l-179 455h-868v73h840l-308 783q-23 62 -71 97.5t-109 35.5q-60 0 -107.5 -35.5t-72.5 -97.5zM1034 1655h-243q-68 0 -127 34.5t-93 92.5l64 37q23 -42 65 -66t91 -24
h243q47 0 89 24.5t67 65.5l63 -37q-34 -59 -93 -93t-126 -34z" />
    <glyph glyph-name="Aogonek" unicode="&#x104;" horiz-adv-x="1822" 
d="M1692 -322v-73h-111q-47 0 -87 21t-62 57q-40 69 8 151l110 193l-168 428h-1032l-176 -455h-80l524 1337q30 77 95 129q68 50 153 50q89 0 154 -50t96 -129l522 -1337h-18l-115 -203q-28 -48 -10 -78q10 -19 34 -30t52 -11h111zM866 1444q-60 0 -107.5 -35.5t-72.5 -97.5
l-307 -783h975l-307 783q-23 62 -71.5 97.5t-109.5 35.5z" />
    <glyph glyph-name="aogonek" unicode="&#x105;" horiz-adv-x="1822" 
d="M1690 -322v-73h-111q-47 0 -87 21t-62 57q-17 34 -17 65q0 41 25 86l135 236l-150 385h-868v73h840l-308 783q-23 62 -71 97.5t-109 35.5q-60 0 -107.5 -35.5t-72.5 -97.5l-512 -1311h-80l524 1337q30 77 95 129q68 50 153 50q89 0 154 -50t96 -129l522 -1337h-61
l-115 -203q-16 -24 -16 -51q0 -15 6 -27q10 -19 34 -30t52 -11h111z" />
    <glyph glyph-name="Cacute" unicode="&#x106;" horiz-adv-x="1775" 
d="M1575 1503v-73h-1022q-130 0 -223.5 -93.5t-93.5 -224.5v-723q0 -130 93 -222.5t224 -92.5h1022v-74h-1022q-161 0 -275 114t-114 275v723q0 161 114 276t275 115h1022zM909 1577h-88l133 223h88z" />
    <glyph glyph-name="cacute" unicode="&#x107;" horiz-adv-x="1775" 
d="M1575 1503v-73h-1022q-130 0 -223.5 -93.5t-93.5 -224.5v-723q0 -130 93 -222.5t224 -92.5h1022v-74h-1022q-161 0 -275 114t-114 275v723q0 161 114 276t275 115h1022zM913 1581h-88l133 223h89z" />
    <glyph glyph-name="Ccircumflex" unicode="&#x108;" horiz-adv-x="1775" 
d="M1575 1503v-73h-1022q-130 0 -223.5 -93.5t-93.5 -224.5v-723q0 -130 93 -222.5t224 -92.5h1022v-74h-1022q-161 0 -275 114t-114 275v723q0 161 114 276t275 115h1022zM948 1800l271 -217h-115l-156 123l-157 -123h-119z" />
    <glyph glyph-name="ccircumflex" unicode="&#x109;" horiz-adv-x="1775" 
d="M1575 1503v-73h-1022q-130 0 -223.5 -93.5t-93.5 -224.5v-723q0 -130 93 -222.5t224 -92.5h1022v-74h-1022q-161 0 -275 114t-114 275v723q0 161 114 276t275 115h1022zM946 1796l271 -217h-115l-156 123l-158 -123h-118z" />
    <glyph glyph-name="Cdotaccent" unicode="&#x10a;" horiz-adv-x="1775" 
d="M1575 1503v-73h-1022q-130 0 -223.5 -93.5t-93.5 -224.5v-723q0 -130 93 -222.5t224 -92.5h1022v-74h-1022q-161 0 -275 114t-114 275v723q0 161 114 276t275 115h1022zM965 1622h-74v174h74v-174z" />
    <glyph glyph-name="cdotaccent" unicode="&#x10b;" horiz-adv-x="1775" 
d="M1575 1503v-73h-1022q-130 0 -223.5 -93.5t-93.5 -224.5v-723q0 -130 93 -222.5t224 -92.5h1022v-74h-1022q-161 0 -275 114t-114 275v723q0 161 114 276t275 115h1022zM985 1624h-74v174h74v-174z" />
    <glyph glyph-name="Ccaron" unicode="&#x10c;" horiz-adv-x="1775" 
d="M1575 1503v-73h-1022q-130 0 -223.5 -93.5t-93.5 -224.5v-723q0 -130 93 -222.5t224 -92.5h1022v-74h-1022q-161 0 -275 114t-114 275v723q0 161 114 276t275 115h1022zM885 1575l-271 215l45 57l226 -178l231 180l45 -59z" />
    <glyph glyph-name="ccaron" unicode="&#x10d;" horiz-adv-x="1775" 
d="M1575 1503v-73h-1022q-130 0 -223.5 -93.5t-93.5 -224.5v-723q0 -130 93 -222.5t224 -92.5h1022v-74h-1022q-161 0 -275 114t-114 275v723q0 161 114 276t275 115h1022zM926 1567l-271 215l45 57l226 -178l231 180l45 -59z" />
    <glyph glyph-name="Dcaron" unicode="&#x10e;" horiz-adv-x="2056" 
d="M1378 0h-1214v1501h1214q161 0 275 -115t114 -276v-721q0 -161 -114 -275t-275 -114zM236 74h1142q131 0 224.5 92.5t93.5 222.5v721q0 130 -93.5 223.5t-224.5 93.5h-1142v-1353zM860 1575l-270 215l45 57l225 -178l232 180l45 -59z" />
    <glyph glyph-name="dcaron" unicode="&#x10f;" horiz-adv-x="2365" 
d="M236 0h-72v1501h1194q161 0 275 -115t114 -276v-721q0 -161 -114 -275t-275 -114h-996v74h996q131 0 224 92.5t93 222.5v721q0 130 -93.5 223.5t-223.5 93.5h-1122v-1427zM803 1571l76 223h77l-75 -223h-78z" />
    <glyph glyph-name="Dcroat" unicode="&#x110;" horiz-adv-x="2002" 
d="M1378 0h-1214v1501h1214q161 0 275 -115t114 -276v-721q0 -161 -114 -275t-275 -114zM236 74h1142q131 0 224.5 92.5t93.5 222.5v721q0 130 -93.5 223.5t-224.5 93.5h-1142v-1353zM625 1655v74h663v-74h-663z" />
    <glyph glyph-name="Emacron" unicode="&#x112;" horiz-adv-x="1691" 
d="M164 252v997q0 104 73.5 178t176.5 74h1112v-71h-1112q-73 0 -125.5 -53.5t-52.5 -127.5v-463h1212v-73h-1212v-461q0 -74 52 -126t126 -52h1112v-74h-1112q-103 0 -176.5 74t-73.5 178zM514 1655v74h664v-74h-664z" />
    <glyph glyph-name="emacron" unicode="&#x113;" horiz-adv-x="1691" 
d="M362 713v73h1086v-73h-1086zM236 1249v-997q0 -74 52 -126t126 -52h1112v-74h-1112q-103 0 -176.5 74t-73.5 178v997q0 104 73.5 178t176.5 74h1112v-71h-1112q-73 0 -125.5 -53.5t-52.5 -127.5zM522 1653v73h664v-73h-664z" />
    <glyph glyph-name="Ebreve" unicode="&#x114;" horiz-adv-x="1716" 
d="M164 252v997q0 104 73.5 178t176.5 74h1112v-71h-1112q-73 0 -125.5 -53.5t-52.5 -127.5v-463h1212v-73h-1212v-461q0 -74 52 -126t126 -52h1112v-74h-1112q-103 0 -176.5 74t-73.5 178zM979 1653h-244q-67 0 -126 34t-93 93l64 37q24 -42 65 -66.5t90 -24.5h244
q47 0 89 24.5t67 66.5l63 -37q-34 -59 -93 -93t-126 -34z" />
    <glyph glyph-name="ebreve" unicode="&#x115;" horiz-adv-x="1691" 
d="M362 713v73h1086v-73h-1086zM236 1249v-997q0 -74 52 -126t126 -52h1112v-74h-1112q-103 0 -176.5 74t-73.5 178v997q0 104 73.5 178t176.5 74h1112v-71h-1112q-73 0 -125.5 -53.5t-52.5 -127.5zM971 1655h-244q-67 0 -126 34t-93 93l63 37q23 -42 65 -66t91 -24h244
q47 0 88.5 24.5t66.5 65.5l64 -37q-34 -59 -93 -93t-126 -34z" />
    <glyph glyph-name="Edotaccent" unicode="&#x116;" horiz-adv-x="1691" 
d="M164 252v997q0 104 73.5 178t176.5 74h1112v-71h-1112q-73 0 -125.5 -53.5t-52.5 -127.5v-463h1212v-73h-1212v-461q0 -74 52 -126t126 -52h1112v-74h-1112q-103 0 -176.5 74t-73.5 178z" />
    <glyph glyph-name="edotaccent" unicode="&#x117;" horiz-adv-x="1691" 
d="M362 713v73h1086v-73h-1086zM236 1249v-997q0 -74 52 -126t126 -52h1112v-74h-1112q-103 0 -176.5 74t-73.5 178v997q0 104 73.5 178t176.5 74h1112v-71h-1112q-73 0 -125.5 -53.5t-52.5 -127.5zM883 1657h-74v174h74v-174z" />
    <glyph glyph-name="Eogonek" unicode="&#x118;" horiz-adv-x="1800" 
d="M1526 0h-10l-115 -203q-28 -48 -10 -78q10 -19 34 -30t52 -11h110v-73h-110q-47 0 -87.5 21.5t-62.5 56.5q-40 69 8 151l95 166h-1016q-103 0 -176.5 74t-73.5 178v997q0 104 73.5 178t176.5 74h1112v-71h-1112q-73 0 -125.5 -53.5t-52.5 -127.5v-463h1212v-73h-1212
v-461q0 -74 52 -126t126 -52h1112v-74z" />
    <glyph glyph-name="eogonek" unicode="&#x119;" horiz-adv-x="1691" 
d="M360 713v73h1086v-73h-1086zM1524 74v-74l-115 -203q-28 -48 -10 -78q10 -19 34 -30t52 -11h110v-73h-110q-47 0 -87.5 21.5t-62.5 56.5q-40 69 8 151l95 166h-1026q-103 0 -176.5 74t-73.5 178v997q0 104 73.5 178t176.5 74h1112v-71h-1112q-73 0 -126 -53.5t-53 -127.5
v-997q0 -73 52.5 -125.5t126.5 -52.5h1112z" />
    <glyph glyph-name="Ecaron" unicode="&#x11a;" horiz-adv-x="1691" 
d="M164 252v997q0 104 73.5 178t176.5 74h1112v-71h-1112q-73 0 -125.5 -53.5t-52.5 -127.5v-463h1212v-73h-1212v-461q0 -74 52 -126t126 -52h1112v-74h-1112q-103 0 -176.5 74t-73.5 178zM844 1575l-271 215l45 57l226 -178l231 180l45 -59z" />
    <glyph glyph-name="ecaron" unicode="&#x11b;" horiz-adv-x="1691" 
d="M362 713v73h1086v-73h-1086zM236 1249v-997q0 -74 52 -126t126 -52h1112v-74h-1112q-103 0 -176.5 74t-73.5 178v997q0 104 73.5 178t176.5 74h1112v-71h-1112q-73 0 -125.5 -53.5t-52.5 -127.5zM852 1583l-270 215l45 57l225 -178l231 181l45 -60z" />
    <glyph glyph-name="Gcircumflex" unicode="&#x11c;" horiz-adv-x="1896" 
d="M1642 0h-1091q-160 0 -273.5 114t-113.5 275v719q0 161 112 276q114 117 275 117h1083v-74h-1083q-130 0 -222.5 -93.5t-92.5 -225.5v-719q0 -131 92 -223t223 -92h1020v637h-627v73h698v-784zM948 1798l271 -217h-115l-156 123l-157 -123h-119z" />
    <glyph glyph-name="gcircumflex" unicode="&#x11d;" horiz-adv-x="1896" 
d="M1642 0h-1091q-160 0 -273.5 114t-113.5 275v719q0 161 112 276q114 117 275 117h1083v-74h-1083q-130 0 -222.5 -93.5t-92.5 -225.5v-719q0 -131 92 -223t223 -92h1020v637h-627v73h698v-784zM942 1794l270 -217h-114l-156 123l-158 -123h-118z" />
    <glyph glyph-name="Gbreve" unicode="&#x11e;" horiz-adv-x="1896" 
d="M1642 0h-1091q-160 0 -273.5 114t-113.5 275v719q0 161 112 276q114 117 275 117h1083v-74h-1083q-130 0 -222.5 -93.5t-92.5 -225.5v-719q0 -131 92 -223t223 -92h1020v637h-627v73h698v-784zM1049 1634h-244q-67 0 -126 34t-93 93l63 37q23 -42 65 -66t91 -24h244
q47 0 88.5 24.5t66.5 65.5l64 -37q-34 -59 -93 -93t-126 -34z" />
    <glyph glyph-name="gbreve" unicode="&#x11f;" horiz-adv-x="1896" 
d="M1642 0h-1091q-160 0 -273.5 114t-113.5 275v719q0 161 112 276q114 117 275 117h1083v-74h-1083q-130 0 -222.5 -93.5t-92.5 -225.5v-719q0 -131 92 -223t223 -92h1020v637h-627v73h698v-784zM1067 1659h-244q-67 0 -126 34t-93 93l64 37q23 -42 64.5 -66t90.5 -24h244
q47 0 89 24.5t67 65.5l63 -37q-34 -59 -93 -93t-126 -34z" />
    <glyph glyph-name="Gdotaccent" unicode="&#x120;" horiz-adv-x="1896" 
d="M1642 0h-1091q-160 0 -273.5 114t-113.5 275v719q0 161 112 276q114 117 275 117h1083v-74h-1083q-130 0 -222.5 -93.5t-92.5 -225.5v-719q0 -131 92 -223t223 -92h1020v637h-627v73h698v-784zM985 1632h-74v174h74v-174z" />
    <glyph glyph-name="gdotaccent" unicode="&#x121;" horiz-adv-x="1896" 
d="M1642 0h-1091q-160 0 -273.5 114t-113.5 275v719q0 161 112 276q114 117 275 117h1083v-74h-1083q-130 0 -222.5 -93.5t-92.5 -225.5v-719q0 -131 92 -223t223 -92h1020v637h-627v73h698v-784zM985 1640h-74v175h74v-175z" />
    <glyph glyph-name="Gcommaaccent" unicode="&#x122;" horiz-adv-x="1896" 
d="M1642 0h-1091q-160 0 -273.5 114t-113.5 275v719q0 161 112 276q114 117 275 117h1083v-74h-1083q-130 0 -222.5 -93.5t-92.5 -225.5v-719q0 -131 92 -223t223 -92h1020v637h-627v73h698v-784zM868 -297l76 223h78l-76 -223h-78z" />
    <glyph glyph-name="gcommaaccent" unicode="&#x123;" horiz-adv-x="1896" 
d="M1642 0v784h-698v-73h627v-637h-1020q-131 0 -223 92t-92 223v719q0 132 92.5 225.5t222.5 93.5h1083v74h-1083q-161 0 -275 -117q-112 -115 -112 -276v-719q0 -161 113.5 -275t273.5 -114h1091zM1024 1585h-78l-76 223h78z" />
    <glyph glyph-name="Hcircumflex" unicode="&#x124;" horiz-adv-x="1884" 
d="M1636 0h-73v713h-1319v-713h-74v1501h74v-715h1319v715h73v-1501zM887 1796l270 -217h-115l-155 123l-158 -123h-119z" />
    <glyph glyph-name="hcircumflex" unicode="&#x125;" horiz-adv-x="1918" 
d="M1671 0h-74v713h-1235v73h1235v715h74v-1501zM238 0h-74v1501h74v-1501zM889 1790l270 -217h-115l-155 123l-158 -123h-119z" />
    <glyph glyph-name="Itilde" unicode="&#x128;" horiz-adv-x="503" 
d="M260 0h-74v1501h74v-1501zM391 1620q-90 0 -158 45q-63 43 -147 33q-78 -9 -133 -70l-55 49q73 80 178 92q106 15 196 -43q69 -41 148 -32q81 12 135 69l53 -49q-74 -80 -178 -92q-12 -2 -39 -2z" />
    <glyph glyph-name="itilde" unicode="&#x129;" horiz-adv-x="503" 
d="M260 0h-74v1501h74v-1501zM391 1610q-90 0 -158 45q-63 43 -147 33q-78 -9 -133 -70l-55 49q73 80 178 92q106 15 196 -43q70 -42 148 -33q80 12 135 70l53 -49q-74 -80 -178 -92q-12 -2 -39 -2z" />
    <glyph glyph-name="uni012A" unicode="&#x12a;" horiz-adv-x="503" 
d="M260 0h-74v1501h74v-1501zM-109 1657v74h664v-74h-664z" />
    <glyph glyph-name="imacron" unicode="&#x12b;" horiz-adv-x="503" 
d="M260 0h-74v1501h74v-1501zM-109 1657v74h664v-74h-664z" />
    <glyph glyph-name="Ibreve" unicode="&#x12c;" horiz-adv-x="503" 
d="M260 0h-74v1501h74v-1501zM346 1657h-244q-67 0 -126 34t-93 93l64 37q23 -42 64.5 -66t90.5 -24h244q47 0 89 24.5t67 65.5l63 -37q-34 -59 -93 -93t-126 -34z" />
    <glyph glyph-name="uni012D" unicode="&#x12d;" horiz-adv-x="503" 
d="M260 0h-74v1501h74v-1501zM344 1657h-244q-67 0 -126 34t-93 93l64 37q23 -42 64.5 -66t90.5 -24h244q47 0 89 24.5t67 65.5l63 -37q-34 -59 -93 -93t-126 -34z" />
    <glyph glyph-name="Iogonek" unicode="&#x12e;" horiz-adv-x="503" 
d="M319 -322v-73h-110q-47 0 -87.5 21.5t-62.5 56.5q-40 68 9 151l118 207v1460h74v-1501h-12l-115 -203q-28 -48 -10 -78q10 -19 34 -30t52 -11h110z" />
    <glyph glyph-name="iogonek" unicode="&#x12f;" horiz-adv-x="503" 
d="M319 -322v-73h-110q-47 0 -87.5 21.5t-62.5 56.5q-40 68 9 151l118 207v1460h74v-1501h-12l-115 -203q-28 -48 -10 -78q10 -19 34 -30t52 -11h110z" />
    <glyph glyph-name="Idotaccent" unicode="&#x130;" horiz-adv-x="591" 
d="M285 0h-74v1501h74v-1501zM285 1612h-74v174h74v-174z" />
    <glyph glyph-name="dotlessi" unicode="&#x131;" horiz-adv-x="503" 
d="M260 0h-74v1501h74v-1501z" />
    <glyph glyph-name="Jcircumflex" unicode="&#x134;" horiz-adv-x="1230" 
d="M918 1501h71v-1112q0 -161 -114 -275t-275 -114h-477v74h477q131 0 224.5 92.5t93.5 222.5v1112zM946 1800l271 -217h-115l-156 123l-158 -123h-118z" />
    <glyph glyph-name="jcircumflex" unicode="&#x135;" horiz-adv-x="1230" 
d="M918 1501h71v-1112q0 -161 -114 -275t-275 -114h-477v74h477q131 0 224.5 92.5t93.5 222.5v1112zM950 1798l271 -217h-115l-156 123l-157 -123h-119z" />
    <glyph glyph-name="Kcommaaccent" unicode="&#x136;" horiz-adv-x="1898" 
d="M1208 735q45 -35 107 -129l422 -606h-88l-394 565q-58 85 -96 116.5t-100 31.5h-821v-713h-72v1501h72v-715h821q62 0 100 32t96 118l394 565h90l-424 -606q-61 -93 -107 -131q-3 -2 -9 -7t-9 -7q9 -6 18 -15zM733 -297h78l76 223h-78z" />
    <glyph glyph-name="kcommaaccent" unicode="&#x137;" horiz-adv-x="1898" 
d="M236 1501v-1501h-72v1501h72zM362 713v73h695q62 0 100 32t96 118l394 565h90l-424 -606q-61 -93 -107 -131q-3 -2 -9 -7t-9 -7q9 -6 18 -15q45 -35 107 -129l422 -606h-88l-394 565q-58 85 -96 116.5t-100 31.5h-695zM760 -297h78l75 223h-77z" />
    <glyph glyph-name="Lacute" unicode="&#x139;" horiz-adv-x="1503" 
d="M1335 0h-962q-86 0 -147.5 61t-61.5 146v1294h74v-1294q0 -55 39.5 -94t95.5 -39h962v-74zM176 1583h-88l133 223h88z" />
    <glyph glyph-name="lacute" unicode="&#x13a;" horiz-adv-x="1503" 
d="M1335 0h-962q-86 0 -147.5 61t-61.5 146v1294h74v-1294q0 -55 39.5 -94t95.5 -39h962v-74zM729 1237h-88l133 223h88z" />
    <glyph glyph-name="Lcommaaccent" unicode="&#x13b;" horiz-adv-x="1503" 
d="M1335 0h-962q-86 0 -147.5 61t-61.5 146v1294h74v-1294q0 -55 39.5 -94t95.5 -39h962v-74zM705 -297l75 223h78l-76 -223h-77z" />
    <glyph glyph-name="lcommaaccent" unicode="&#x13c;" horiz-adv-x="1503" 
d="M1335 0h-962q-86 0 -147.5 61t-61.5 146v1294h74v-1294q0 -55 39.5 -94t95.5 -39h962v-74z" />
    <glyph glyph-name="Lcaron" unicode="&#x13d;" horiz-adv-x="1503" 
d="M1335 0h-962q-86 0 -147.5 61t-61.5 146v1294h74v-1294q0 -55 39.5 -94t95.5 -39h962v-74zM199 1583l-271 215l45 57l226 -178l231 181l45 -60z" />
    <glyph glyph-name="lcaron" unicode="&#x13e;" horiz-adv-x="1587" 
d="M1335 0h-962q-86 0 -147.5 61t-61.5 146v1294h74v-1294q0 -55 39.5 -94t95.5 -39h962v-74zM821 1266l76 223h78l-76 -223h-78z" />
    <glyph glyph-name="Ldot" unicode="&#x13f;" horiz-adv-x="1503" 
d="M1335 0h-962q-86 0 -147.5 61t-61.5 146v1294h74v-1294q0 -55 39.5 -94t95.5 -39h962v-74zM788 793h-73v174h73v-174z" />
    <glyph glyph-name="ldot" unicode="&#x140;" horiz-adv-x="1820" 
d="M1335 0h-962q-86 0 -147.5 61t-61.5 146v1294h74v-1294q0 -55 39.5 -94t95.5 -39h962v-74zM768 786h-74v175h74v-175z" />
    <glyph glyph-name="Lslash" unicode="&#x141;" horiz-adv-x="1503" 
d="M1335 74v-74h-962q-86 0 -147.5 61t-61.5 146v350l-137 -182h-88l225 303v823h74v-725l254 342h94l-348 -463v-448q0 -55 39.5 -94t95.5 -39h962z" />
    <glyph glyph-name="lslash" unicode="&#x142;" horiz-adv-x="1503" 
d="M1335 74v-74h-962q-86 0 -147.5 61t-61.5 146v348l-137 -180h-88l225 303v823h74v-725l254 342v-131l-254 -334v-446q0 -55 39.5 -94t95.5 -39h962z" />
    <glyph glyph-name="Nacute" unicode="&#x143;" horiz-adv-x="1986" 
d="M238 1356v-1356h-74v1356q0 54 26 90q20 33 66 47q47 16 94 -2q50 -16 78 -61l1077 -1324v-2q19 -26 44.5 -34.5t47.5 -1.5q41 12 41 69v1364h74v-1364q0 -49 -26 -90q-26 -37 -66 -49q-50 -13 -94 4q-51 16 -80 59l-1075 1325h-2q-17 26 -43 35t-47 2q-41 -12 -41 -67z
M971 1659h-88l133 223h88z" />
    <glyph glyph-name="nacute" unicode="&#x144;" horiz-adv-x="1986" 
d="M1675 0l-1353 1409v-1407h-74v1499h88l1350 -1407v1407h73v-1501h-84zM999 1503h-88l133 223h89z" />
    <glyph glyph-name="Ncommaaccent" unicode="&#x145;" horiz-adv-x="1998" 
d="M238 1356v-1356h-74v1356q0 54 26 90q20 33 66 47q47 16 94 -2q50 -16 78 -61l1077 -1324v-2q19 -26 44.5 -34.5t47.5 -1.5q41 12 41 69v1364h74v-1364q0 -49 -26 -90q-26 -37 -66 -49q-50 -13 -94 4q-51 16 -80 59l-1075 1325h-2q-17 26 -43 35t-47 2q-41 -12 -41 -67z
M891 -297l76 223h77l-75 -223h-78z" />
    <glyph glyph-name="ncommaaccent" unicode="&#x146;" horiz-adv-x="1986" 
d="M1675 0l-1353 1409v-1407h-74v1499h88l1350 -1407v1407h73v-1501h-84z" />
    <glyph glyph-name="Ncaron" unicode="&#x147;" horiz-adv-x="1986" 
d="M238 1356v-1356h-74v1356q0 54 26 90q20 33 66 47q47 16 94 -2q50 -16 78 -61l1077 -1324v-2q19 -26 44.5 -34.5t47.5 -1.5q41 12 41 69v1364h74v-1364q0 -49 -26 -90q-26 -37 -66 -49q-50 -13 -94 4q-51 16 -80 59l-1075 1325h-2q-17 26 -43 35t-47 2q-41 -12 -41 -67z
M989 1575l-270 215l45 57l225 -178l232 180l45 -59z" />
    <glyph glyph-name="ncaron" unicode="&#x148;" horiz-adv-x="1986" 
d="M1675 0l-1353 1409v-1407h-74v1499h88l1350 -1407v1407h73v-1501h-84zM1022 1544l-270 215l45 58l225 -179l231 181l45 -60z" />
    <glyph glyph-name="napostrophe" unicode="&#x149;" horiz-adv-x="2025" 
d="M1675 0l-1353 1409v-1407h-74v1499h88l1350 -1407v1407h73v-1501h-84zM254 1583l76 223h78l-76 -223h-78z" />
    <glyph glyph-name="Omacron" unicode="&#x14c;" horiz-adv-x="2025" 
d="M1522 0h-969q-161 0 -275 114t-114 275v723q0 161 114 276t275 115h969q161 0 275 -115t114 -276v-723q0 -161 -114 -275t-275 -114zM1522 1430h-969q-130 0 -223.5 -93.5t-93.5 -224.5v-723q0 -130 93 -222.5t224 -92.5h969q131 0 224 92.5t93 222.5v723
q0 131 -93.5 224.5t-223.5 93.5zM684 1661v74h664v-74h-664z" />
    <glyph glyph-name="omacron" unicode="&#x14d;" horiz-adv-x="2025" 
d="M1522 0h-969q-161 0 -275 114t-114 275v723q0 161 114 276t275 115h969q161 0 275 -115t114 -276v-723q0 -161 -114 -275t-275 -114zM1522 1430h-969q-130 0 -223.5 -93.5t-93.5 -224.5v-723q0 -130 93 -222.5t224 -92.5h969q131 0 224 92.5t93 222.5v723
q0 131 -93.5 224.5t-223.5 93.5zM680 1657v74h663v-74h-663z" />
    <glyph glyph-name="Obreve" unicode="&#x14e;" horiz-adv-x="2215" 
d="M1522 0h-969q-161 0 -275 114t-114 275v723q0 161 114 276t275 115h969q161 0 275 -115t114 -276v-723q0 -161 -114 -275t-275 -114zM1522 1430h-969q-130 0 -223.5 -93.5t-93.5 -224.5v-723q0 -130 93 -222.5t224 -92.5h969q131 0 224 92.5t93 222.5v723
q0 131 -93.5 224.5t-223.5 93.5zM1147 1657h-244q-67 0 -126 34t-93 93l64 37q23 -42 64.5 -66t90.5 -24h244q47 0 89 24.5t67 65.5l63 -37q-34 -59 -93 -93t-126 -34z" />
    <glyph glyph-name="obreve" unicode="&#x14f;" horiz-adv-x="2164" 
d="M1522 0h-969q-161 0 -275 114t-114 275v723q0 161 114 276t275 115h969q161 0 275 -115t114 -276v-723q0 -161 -114 -275t-275 -114zM1522 1430h-969q-130 0 -223.5 -93.5t-93.5 -224.5v-723q0 -130 93 -222.5t224 -92.5h969q131 0 224 92.5t93 222.5v723
q0 131 -93.5 224.5t-223.5 93.5zM1151 1659h-244q-67 0 -126 34t-93 93l64 37q23 -42 64.5 -66t90.5 -24h244q47 0 89 24.5t67 65.5l63 -37q-34 -59 -93 -93t-126 -34z" />
    <glyph glyph-name="Ohungarumlaut" unicode="&#x150;" horiz-adv-x="2160" 
d="M1522 0h-969q-161 0 -275 114t-114 275v723q0 161 114 276t275 115h969q161 0 275 -115t114 -276v-723q0 -161 -114 -275t-275 -114zM1522 1430h-969q-130 0 -223.5 -93.5t-93.5 -224.5v-723q0 -130 93 -222.5t224 -92.5h969q131 0 224 92.5t93 222.5v723
q0 131 -93.5 224.5t-223.5 93.5zM930 1585h-88l133 223h88zM1141 1585h-88l133 223h88z" />
    <glyph glyph-name="ohungarumlaut" unicode="&#x151;" horiz-adv-x="2025" 
d="M1522 0h-969q-161 0 -275 114t-114 275v723q0 161 114 276t275 115h969q161 0 275 -115t114 -276v-723q0 -161 -114 -275t-275 -114zM1522 1430h-969q-130 0 -223.5 -93.5t-93.5 -224.5v-723q0 -130 93 -222.5t224 -92.5h969q131 0 224 92.5t93 222.5v723
q0 131 -93.5 224.5t-223.5 93.5zM872 1585h-88l134 223h88zM1083 1585h-88l133 223h89z" />
    <glyph glyph-name="OE" unicode="&#x152;" horiz-adv-x="3252" 
d="M1769 1249v-137v-326h1172v-73h-1172v-324v-137q0 -73 52.5 -125.5t126.5 -52.5h1071v-74h-1071q-84 0 -150 50.5t-90 129.5q-53 -83 -140 -131.5t-188 -48.5h-825q-161 0 -275 114t-114 275v723q0 161 114 276t275 115h825q101 0 188 -48.5t140 -131.5q23 79 89.5 128.5
t150.5 49.5h1071v-71h-1071q-73 0 -126 -53.5t-53 -127.5zM1380 74q131 0 224.5 92.5t93.5 222.5v723q0 130 -94 224t-224 94h-825q-130 0 -223.5 -93.5t-93.5 -224.5v-723q0 -130 93 -222.5t224 -92.5h825z" />
    <glyph glyph-name="oe" unicode="&#x153;" horiz-adv-x="3252" 
d="M1769 1249v-137v-326h1172v-73h-1172v-324v-137q0 -73 52.5 -125.5t126.5 -52.5h1071v-74h-1071q-84 0 -150 50.5t-90 129.5q-53 -83 -140 -131.5t-188 -48.5h-825q-161 0 -275 114t-114 275v723q0 161 114 276t275 115h825q101 0 188 -48.5t140 -131.5q23 79 89.5 128.5
t150.5 49.5h1071v-71h-1071q-73 0 -126 -53.5t-53 -127.5zM1380 74q131 0 224.5 92.5t93.5 222.5v723q0 130 -94 224t-224 94h-825q-130 0 -223.5 -93.5t-93.5 -224.5v-723q0 -130 93 -222.5t224 -92.5h825z" />
    <glyph glyph-name="Racute" unicode="&#x154;" horiz-adv-x="1923" 
d="M1677 0h-92l-436 578h-909v-576h-74v1501h1192q106 0 181 -76t75 -182v-411q0 -106 -75 -181t-181 -75h-117zM240 1430v-779h1118q76 0 130 54t54 129v411q0 77 -54 131t-130 54h-1118zM848 1577h-88l133 223h88z" />
    <glyph glyph-name="racute" unicode="&#x155;" horiz-adv-x="1888" 
d="M238 1430v-1428h-74v1501h1145q106 0 181 -76t75 -182v-411q0 -106 -75 -181t-181 -75h-117l436 -578h-92l-436 578h-738v73h947q76 0 130 54t54 129v411q0 77 -54 131t-130 54h-1071zM778 1585h-88l133 223h88z" />
    <glyph glyph-name="Rcommaaccent" unicode="&#x156;" horiz-adv-x="1923" 
d="M1677 0h-92l-436 578h-909v-576h-74v1501h1192q106 0 181 -76t75 -182v-411q0 -106 -75 -181t-181 -75h-117zM240 1430v-779h1118q76 0 130 54t54 129v411q0 77 -54 131t-130 54h-1118zM793 -297h77l76 223h-78z" />
    <glyph glyph-name="rcommaaccent" unicode="&#x157;" horiz-adv-x="1888" 
d="M238 1430v-1428h-74v1501h1145q106 0 181 -76t75 -182v-411q0 -106 -75 -181t-181 -75h-117l436 -578h-92l-436 578h-738v73h947q76 0 130 54t54 129v411q0 77 -54 131t-130 54h-1071z" />
    <glyph glyph-name="Rcaron" unicode="&#x158;" horiz-adv-x="1923" 
d="M1677 0h-92l-436 578h-909v-576h-74v1501h1192q106 0 181 -76t75 -182v-411q0 -106 -75 -181t-181 -75h-117zM240 1430v-779h1118q76 0 130 54t54 129v411q0 77 -54 131t-130 54h-1118zM829 1579l-270 215l45 57l225 -178l232 180l45 -59z" />
    <glyph glyph-name="rcaron" unicode="&#x159;" horiz-adv-x="1888" 
d="M238 1430v-1428h-74v1501h1145q106 0 181 -76t75 -182v-411q0 -106 -75 -181t-181 -75h-117l436 -578h-92l-436 578h-738v73h947q76 0 130 54t54 129v411q0 77 -54 131t-130 54h-1071zM817 1583l-270 215l45 57l225 -178l232 181l45 -60z" />
    <glyph glyph-name="Sacute" unicode="&#x15a;" horiz-adv-x="1775" 
d="M1268 0h-1102v74h1102q96 0 156.5 55.5t60.5 144.5v179q0 7 -2 18t-13.5 35t-31.5 45t-62.5 42.5t-99.5 31.5v2l-778 176q-124 25 -205 67q-61 30 -96 74q-43 52 -43 121v147q-2 128 77 207q36 39 86.5 61.5t100.5 22.5h1077v-73h-1077q-76 0 -133 -60q-60 -60 -58 -158
v-147q0 -130 287 -191l776 -176q167 -33 234 -139q35 -56 35 -108v-177q0 -118 -84 -196q-78 -78 -207 -78zM866 1577h-88l133 223h88z" />
    <glyph glyph-name="sacute" unicode="&#x15b;" 
d="M1268 0h-1102v74h1102q96 0 156.5 55.5t60.5 144.5v179q0 7 -2 18t-13.5 35t-31.5 45t-62.5 42.5t-99.5 31.5v2l-778 176q-124 25 -205 67q-61 30 -96 74q-43 52 -43 121v147q-2 128 77 207q36 39 86.5 61.5t100.5 22.5h1077v-73h-1077q-76 0 -133 -60q-60 -60 -58 -158
v-147q0 -130 287 -191l776 -176q167 -33 234 -139q35 -56 35 -108v-177q0 -118 -84 -196q-78 -78 -207 -78zM844 1583h-88l133 223h88z" />
    <glyph glyph-name="Scircumflex" unicode="&#x15c;" horiz-adv-x="1802" 
d="M1268 0h-1102v74h1102q96 0 156.5 55.5t60.5 144.5v179q0 7 -2 18t-13.5 35t-31.5 45t-62.5 42.5t-99.5 31.5v2l-778 176q-124 25 -205 67q-61 30 -96 74q-43 52 -43 121v147q-2 128 77 207q36 39 86.5 61.5t100.5 22.5h1077v-73h-1077q-76 0 -133 -60q-60 -60 -58 -158
v-147q0 -130 287 -191l776 -176q167 -33 234 -139q35 -56 35 -108v-177q0 -118 -84 -196q-78 -78 -207 -78zM852 1806l270 -217h-114l-156 123l-158 -123h-119z" />
    <glyph glyph-name="scircumflex" unicode="&#x15d;" 
d="M1268 0h-1102v74h1102q96 0 156.5 55.5t60.5 144.5v179q0 7 -2 18t-13.5 35t-31.5 45t-62.5 42.5t-99.5 31.5v2l-778 176q-124 25 -205 67q-61 30 -96 74q-43 52 -43 121v147q-2 128 77 207q36 39 86.5 61.5t100.5 22.5h1077v-73h-1077q-76 0 -133 -60q-60 -60 -58 -158
v-147q0 -130 287 -191l776 -176q167 -33 234 -139q35 -56 35 -108v-177q0 -118 -84 -196q-78 -78 -207 -78zM850 1796l270 -217h-114l-156 123l-158 -123h-119z" />
    <glyph glyph-name="Scedilla" unicode="&#x15e;" horiz-adv-x="1800" 
d="M967 -395h-283v73h279q34 3 56.5 27.5t22.5 58.5t-23 60t-56 29h-222l50 147h-625v74h1102q96 0 156.5 55.5t60.5 144.5v179q0 7 -2 18t-13.5 35t-31.5 45t-62.5 42.5t-99.5 31.5l-778 178q-124 25 -205 67q-61 30 -96 74q-43 52 -43 121v147q0 130 77 207
q36 39 86.5 61.5t100.5 22.5h1077v-73h-1077q-76 0 -133 -60q-58 -58 -58 -149v-156q0 -130 287 -191l776 -176q170 -39 234 -139q35 -56 35 -108v-177q0 -117 -84 -198q-79 -76 -207 -76h-398l-26 -76h123q64 -3 106 -51q43 -43 43 -109q0 -65 -43 -108q-39 -44 -106 -51z
" />
    <glyph glyph-name="scedilla" unicode="&#x15f;" 
d="M922 -395h-285v73h278q34 3 57 27.5t23 58.5t-23 60t-57 29h-221l49 147h-577v74h1102q96 0 156.5 55.5t60.5 144.5v179q0 7 -2 18t-13.5 35t-31.5 45t-62.5 42.5t-99.5 31.5v2l-778 176q-124 25 -205 67q-61 30 -96 74q-43 52 -43 121v147q-2 128 77 207
q36 39 86.5 61.5t100.5 22.5h1077v-73h-1077q-76 0 -133 -60q-60 -60 -58 -158v-147q0 -130 287 -191l776 -176q167 -33 234 -139q35 -56 35 -108v-177q0 -118 -84 -196q-78 -78 -207 -78h-445l-26 -76h125q62 -3 104 -51q43 -43 43 -109q0 -65 -43 -108q-39 -44 -104 -51z
" />
    <glyph glyph-name="Scaron" unicode="&#x160;" 
d="M1268 0h-1102v74h1102q96 0 156.5 55.5t60.5 144.5v179q0 7 -2 18t-13.5 35t-31.5 45t-62.5 42.5t-99.5 31.5v2l-778 176q-124 25 -205 67q-61 30 -96 74q-43 52 -43 121v147q-2 128 77 207q36 39 86.5 61.5t100.5 22.5h1077v-73h-1077q-76 0 -133 -60q-60 -60 -58 -158
v-147q0 -130 287 -191l776 -176q167 -33 234 -139q35 -56 35 -108v-177q0 -118 -84 -196q-78 -78 -207 -78zM856 1583l-270 215l45 57l225 -178l231 181l46 -60z" />
    <glyph glyph-name="scaron" unicode="&#x161;" 
d="M1268 0h-1102v74h1102q96 0 156.5 55.5t60.5 144.5v179q0 7 -2 18t-13.5 35t-31.5 45t-62.5 42.5t-99.5 31.5v2l-778 176q-124 25 -205 67q-61 30 -96 74q-43 52 -43 121v147q-2 128 77 207q36 39 86.5 61.5t100.5 22.5h1077v-73h-1077q-76 0 -133 -60q-60 -60 -58 -158
v-147q0 -130 287 -191l776 -176q167 -33 234 -139q35 -56 35 -108v-177q0 -118 -84 -196q-78 -78 -207 -78zM850 1575l-270 215l45 57l225 -178l231 180l45 -59z" />
    <glyph glyph-name="Tcommaaccent" unicode="&#x162;" horiz-adv-x="1548" 
d="M750 0h-74v1427h-676v74h1427v-74h-677v-1427zM696 -297l76 223h78l-76 -223h-78z" />
    <glyph glyph-name="tcommaaccent" unicode="&#x163;" horiz-adv-x="1548" 
d="M750 0h-74v1427h-676v74h1427v-74h-677v-1427zM696 -297l76 223h78l-76 -223h-78z" />
    <glyph glyph-name="Tcaron" unicode="&#x164;" horiz-adv-x="1548" 
d="M750 0h-74v1427h-676v74h1427v-74h-677v-1427zM709 1575l-271 215l45 57l226 -178l231 180l45 -59z" />
    <glyph glyph-name="tcaron" unicode="&#x165;" horiz-adv-x="1937" 
d="M750 0h-74v1427h-676v74h1427v-74h-677v-1427zM1665 1368l76 223h78l-76 -223h-78z" />
    <glyph glyph-name="Utilde" unicode="&#x168;" horiz-adv-x="1939" 
d="M164 1501h72v-1112q0 -130 93 -222.5t224 -92.5h764q131 0 224 92.5t93 222.5v1112h72v-1112q0 -161 -114 -275t-275 -114h-764q-161 0 -275 114t-114 275v1112zM1067 1628q-90 0 -158 45q-63 43 -147 33q-78 -9 -133 -70l-56 50q73 80 179 92q106 15 196 -43
q70 -42 148 -33q80 12 135 70l53 -50q-74 -80 -178 -92q-12 -2 -39 -2z" />
    <glyph glyph-name="utilde" unicode="&#x169;" horiz-adv-x="1939" 
d="M164 1501h72v-1112q0 -130 93 -222.5t224 -92.5h764q131 0 224 92.5t93 222.5v1112h72v-1112q0 -161 -114 -275t-275 -114h-764q-161 0 -275 114t-114 275v1112zM1071 1595q-90 0 -158 45q-63 43 -147 33q-79 -9 -133 -69l-55 49q73 80 178 92q106 15 196 -43
q70 -42 148 -33q80 12 135 70l53 -49q-75 -81 -178 -93q-12 -2 -39 -2z" />
    <glyph glyph-name="Umacron" unicode="&#x16a;" horiz-adv-x="1939" 
d="M164 1501h72v-1112q0 -130 93 -222.5t224 -92.5h764q131 0 224 92.5t93 222.5v1112h72v-1112q0 -161 -114 -275t-275 -114h-764q-161 0 -275 114t-114 275v1112zM600 1577v74h664v-74h-664z" />
    <glyph glyph-name="umacron" unicode="&#x16b;" horiz-adv-x="1939" 
d="M164 1501h72v-1112q0 -130 93 -222.5t224 -92.5h764q131 0 224 92.5t93 222.5v1112h72v-1112q0 -161 -114 -275t-275 -114h-764q-161 0 -275 114t-114 275v1112zM623 1583v74h663v-74h-663z" />
    <glyph glyph-name="Ubreve" unicode="&#x16c;" horiz-adv-x="1939" 
d="M164 1501h72v-1112q0 -130 93 -222.5t224 -92.5h764q131 0 224 92.5t93 222.5v1112h72v-1112q0 -161 -114 -275t-275 -114h-764q-161 0 -275 114t-114 275v1112zM1034 1632h-243q-68 0 -127 34.5t-93 92.5l64 37q23 -42 65 -66t91 -24h243q47 0 89 24.5t67 65.5l63 -37
q-34 -59 -93 -93t-126 -34z" />
    <glyph glyph-name="ubreve" unicode="&#x16d;" horiz-adv-x="1939" 
d="M164 1501h72v-1112q0 -130 93 -222.5t224 -92.5h764q131 0 224 92.5t93 222.5v1112h72v-1112q0 -161 -114 -275t-275 -114h-764q-161 0 -275 114t-114 275v1112zM1047 1624h-244q-67 0 -126 34t-93 93l63 37q23 -42 65 -66t91 -24h244q47 0 88.5 24.5t66.5 65.5l64 -37
q-34 -59 -93 -93t-126 -34z" />
    <glyph glyph-name="Uring" unicode="&#x16e;" horiz-adv-x="1939" 
d="M164 1501h72v-1112q0 -130 93 -222.5t224 -92.5h764q131 0 224 92.5t93 222.5v1112h72v-1112q0 -161 -114 -275t-275 -114h-764q-161 0 -275 114t-114 275v1112zM918 1581q-64 0 -110 45.5t-46 110.5q0 64 45.5 109.5t110.5 45.5q63 0 108 -45.5t45 -109.5t-45 -110
t-108 -46zM918 1827q-38 0 -65.5 -26.5t-27.5 -63.5q0 -38 27 -64t66 -26q37 0 63.5 26t26.5 64q0 37 -26.5 63.5t-63.5 26.5z" />
    <glyph glyph-name="uring" unicode="&#x16f;" horiz-adv-x="1939" 
d="M164 1501h72v-1112q0 -130 93 -222.5t224 -92.5h764q131 0 224 92.5t93 222.5v1112h72v-1112q0 -161 -114 -275t-275 -114h-764q-161 0 -275 114t-114 275v1112zM924 1591q-64 0 -110 45.5t-46 110.5t46 110.5t110 45.5q63 0 108 -46t45 -110t-45 -110t-108 -46z
M924 1837q-38 0 -65.5 -26.5t-27.5 -63.5q0 -38 27 -64t66 -26q37 0 63.5 26t26.5 64q0 37 -26.5 63.5t-63.5 26.5z" />
    <glyph glyph-name="Uhungarumlaut" unicode="&#x170;" horiz-adv-x="1939" 
d="M164 1501h72v-1112q0 -130 93 -222.5t224 -92.5h764q131 0 224 92.5t93 222.5v1112h72v-1112q0 -161 -114 -275t-275 -114h-764q-161 0 -275 114t-114 275v1112zM811 1585h-88l133 223h88zM1022 1585h-88l133 223h88z" />
    <glyph glyph-name="uhungarumlaut" unicode="&#x171;" horiz-adv-x="1939" 
d="M164 1501h72v-1112q0 -130 93 -222.5t224 -92.5h764q131 0 224 92.5t93 222.5v1112h72v-1112q0 -161 -114 -275t-275 -114h-764q-161 0 -275 114t-114 275v1112zM829 1585h-88l133 223h89zM1040 1585h-88l133 223h89z" />
    <glyph glyph-name="Uogonek" unicode="&#x172;" horiz-adv-x="1939" 
d="M1100 -322v-73h-111q-47 0 -87 21t-62 57q-40 69 8 151l94 166h-389q-161 0 -275 114t-114 275v1112h72v-1112q0 -130 93 -222.5t224 -92.5h764q131 0 224 92.5t93 222.5v1112h72v-1112q0 -161 -114 -275t-275 -114h-289l-115 -203q-28 -48 -10 -78q10 -19 34 -30t52 -11
h111z" />
    <glyph glyph-name="uogonek" unicode="&#x173;" horiz-adv-x="1939" 
d="M164 1501h72v-1112q0 -130 93 -222.5t224 -92.5h764q131 0 224 92.5t93 222.5v1112h72v-1112q0 -161 -114 -275t-275 -114h-764q-161 0 -275 114t-114 275v1112zM1706 -395h-111q-47 0 -87 21t-62 57q-40 69 8 151l127 221l64 -37l-125 -221q-28 -49 -11 -78
q10 -19 34 -30t52 -11h111v-73z" />
    <glyph glyph-name="Wcircumflex" unicode="&#x174;" horiz-adv-x="3203" 
d="M2286 -8q-85 0 -150 47q-56 47 -98 129v2v2l-467 1212q-16 46 -49 46t-49 -46l-467 -1214v-2q-41 -80 -99 -129q-65 -47 -149 -47q-91 0 -154 51q-66 48 -94 129l-520 1329h78l510 -1304q23 -62 71 -96.5t109 -34.5q60 0 102.5 31.5t77.5 101.5l467 1212q15 42 46.5 66
t70.5 24t70 -24t46 -66l467 -1212q35 -70 78 -101.5t103 -31.5q61 0 109 34.5t71 96.5l510 1304h80l-523 -1329q-28 -81 -94 -129q-63 -51 -153 -51zM1522 1798l270 -217h-115l-155 123l-158 -123h-119z" />
    <glyph glyph-name="wcircumflex" unicode="&#x175;" horiz-adv-x="3203" 
d="M2286 -8q-85 0 -150 47q-56 47 -98 129v2v2l-467 1212q-16 46 -49 46t-49 -46l-467 -1214v-2q-41 -80 -99 -129q-65 -47 -149 -47q-91 0 -154 51q-66 48 -94 129l-520 1329h78l510 -1304q23 -62 71 -96.5t109 -34.5q60 0 102.5 31.5t77.5 101.5l467 1212q15 42 46.5 66
t70.5 24t70 -24t46 -66l467 -1212q35 -70 78 -101.5t103 -31.5q61 0 109 34.5t71 96.5l510 1304h80l-523 -1329q-28 -81 -94 -129q-63 -51 -153 -51zM1520 1794l270 -217h-115l-155 123l-158 -123h-119z" />
    <glyph glyph-name="Ycircumflex" unicode="&#x176;" horiz-adv-x="1816" 
d="M836 571v-571h-74v571q-37 5 -67 19.5t-58 43t-46 51t-48 65.5l-523 751h89l495 -708q60 -87 97.5 -118.5t97.5 -31.5q62 0 100 31.5t96 116.5l494 710h90l-524 -751q-58 -88 -107 -129q-50 -44 -112 -50zM807 1794l270 -217h-114l-156 123l-158 -123h-119z" />
    <glyph glyph-name="ycircumflex" unicode="&#x177;" horiz-adv-x="1699" 
d="M799 569q-37 0 -69.5 10.5t-54 23t-48.5 41.5t-41 47.5t-43 58.5l-523 751h89l495 -708q60 -87 97.5 -118.5t97.5 -31.5q62 0 100 31.5t96 116.5l494 710h90l-524 -751q-58 -88 -107 -129q-61 -52 -149 -52zM836 0h-74v526h74v-526zM809 1794l270 -217h-114l-156 123
l-158 -123h-119z" />
    <glyph glyph-name="Ydieresis" unicode="&#x178;" horiz-adv-x="1816" 
d="M836 571v-571h-74v571q-37 5 -67 19.5t-58 43t-46 51t-48 65.5l-523 751h89l495 -708q60 -87 97.5 -118.5t97.5 -31.5q62 0 100 31.5t96 116.5l494 710h90l-524 -751q-58 -88 -107 -129q-50 -44 -112 -50zM666 1497h-74v174h74v-174zM993 1497h-73v174h73v-174z" />
    <glyph glyph-name="Zacute" unicode="&#x179;" 
d="M1470 0h-1155q-78 0 -116 49q-35 38 -35 90q0 78 57 129v2l1149 1018q33 30 33 74q0 4 -0.5 9t-5 16.5t-12.5 20t-24 15.5t-38 7h-1122v73h1122q75 0 119 -51q35 -44 35 -90q0 -74 -58 -129l-1149 -1018q-32 -29 -32 -76q0 -4 0.5 -8t4.5 -15.5t11 -19.5t23 -15t38 -7
h1155v-74zM823 1583h-88l133 223h88z" />
    <glyph glyph-name="zacute" unicode="&#x17a;" 
d="M1470 0h-1155q-78 0 -116 49q-35 38 -35 90q0 78 57 129v2l1149 1018q33 30 33 74q0 4 -0.5 9t-5 16.5t-12.5 20t-24 15.5t-38 7h-1122v73h1122q75 0 119 -51q35 -44 35 -90q0 -74 -58 -129l-1149 -1018q-32 -29 -32 -76q0 -4 0.5 -8t4.5 -15.5t11 -19.5t23 -15t38 -7
h1155v-74zM811 1583h-88l133 223h88z" />
    <glyph glyph-name="Zdotaccent" unicode="&#x17b;" 
d="M1470 0h-1155q-78 0 -116 49q-35 38 -35 90q0 78 57 129v2l1149 1018q33 30 33 74q0 4 -0.5 9t-5 16.5t-12.5 20t-24 15.5t-38 7h-1122v73h1122q75 0 119 -51q35 -44 35 -90q0 -74 -58 -129l-1149 -1018q-32 -29 -32 -76q0 -4 0.5 -8t4.5 -15.5t11 -19.5t23 -15t38 -7
h1155v-74zM856 1583h-74v174h74v-174z" />
    <glyph glyph-name="zdotaccent" unicode="&#x17c;" 
d="M1470 0h-1155q-78 0 -116 49q-35 38 -35 90q0 78 57 129v2l1149 1018q33 30 33 74q0 4 -0.5 9t-5 16.5t-12.5 20t-24 15.5t-38 7h-1122v73h1122q75 0 119 -51q35 -44 35 -90q0 -74 -58 -129l-1149 -1018q-32 -29 -32 -76q0 -4 0.5 -8t4.5 -15.5t11 -19.5t23 -15t38 -7
h1155v-74zM889 1583h-74v174h74v-174z" />
    <glyph glyph-name="Zcaron" unicode="&#x17d;" 
d="M1470 0h-1155q-78 0 -116 49q-35 38 -35 90q0 78 57 129v2l1149 1018q33 30 33 74q0 4 -0.5 9t-5 16.5t-12.5 20t-24 15.5t-38 7h-1122v73h1122q75 0 119 -51q35 -44 35 -90q0 -74 -58 -129l-1149 -1018q-32 -29 -32 -76q0 -4 0.5 -8t4.5 -15.5t11 -19.5t23 -15t38 -7
h1155v-74zM827 1581l-270 215l45 57l225 -178l232 180l45 -59z" />
    <glyph glyph-name="zcaron" unicode="&#x17e;" 
d="M1470 0h-1155q-78 0 -116 49q-35 38 -35 90q0 78 57 129v2l1149 1018q33 30 33 74q0 4 -0.5 9t-5 16.5t-12.5 20t-24 15.5t-38 7h-1122v73h1122q75 0 119 -51q35 -44 35 -90q0 -74 -58 -129l-1149 -1018q-32 -29 -32 -76q0 -4 0.5 -8t4.5 -15.5t11 -19.5t23 -15t38 -7
h1155v-74zM829 1583l-270 215l45 57l225 -178l232 181l45 -60z" />
    <glyph glyph-name="uni01C5" unicode="&#x1c5;" horiz-adv-x="3637" 
d="M1378 0h-1214v1501h1214q161 0 275 -115t114 -276v-721q0 -161 -114 -275t-275 -114zM236 74h1142q131 0 224.5 92.5t93.5 222.5v721q0 130 -93.5 223.5t-224.5 93.5h-1142v-1353zM3351 0h-1156q-78 0 -116 49q-35 38 -35 90q0 78 57 129v2l1149 1018q33 30 33 74
q0 4 -0.5 9t-5 16.5t-12.5 20t-24 15.5t-38 7h-1122v73h1122q75 0 119 -51q35 -44 35 -90q0 -74 -58 -129l-1149 -1018q-32 -29 -32 -76q0 -4 0.5 -8t4.5 -15.5t11 -19.5t23 -15t38 -7h1156v-74zM874 1575l-270 215l45 57l225 -178l232 180l45 -59z" />
    <glyph glyph-name="Scommaaccent" unicode="&#x218;" horiz-adv-x="1775" 
d="M1268 0h-1102v74h1102q96 0 156.5 55.5t60.5 144.5v179q0 7 -2 18t-13.5 35t-31.5 45t-62.5 42.5t-99.5 31.5v2l-778 176q-124 25 -205 67q-61 30 -96 74q-43 52 -43 121v147q-2 128 77 207q36 39 86.5 61.5t100.5 22.5h1077v-73h-1077q-76 0 -133 -60q-60 -60 -58 -158
v-147q0 -130 287 -191l776 -176q167 -33 234 -139q35 -56 35 -108v-177q0 -118 -84 -196q-78 -78 -207 -78zM758 -297l76 223h77l-75 -223h-78z" />
    <glyph glyph-name="scommaaccent" unicode="&#x219;" 
d="M1268 0h-1102v74h1102q96 0 156.5 55.5t60.5 144.5v179q0 7 -2 18t-13.5 35t-31.5 45t-62.5 42.5t-99.5 31.5v2l-778 176q-124 25 -205 67q-61 30 -96 74q-43 52 -43 121v147q-2 128 77 207q36 39 86.5 61.5t100.5 22.5h1077v-73h-1077q-76 0 -133 -60q-60 -60 -58 -158
v-147q0 -130 287 -191l776 -176q167 -33 234 -139q35 -56 35 -108v-177q0 -118 -84 -196q-78 -78 -207 -78zM776 -297l76 223h78l-76 -223h-78z" />
    <glyph glyph-name="uni021A" unicode="&#x21a;" horiz-adv-x="1548" 
d="M750 0h-74v1427h-676v74h1427v-74h-677v-1427zM610 -285l76 224h78l-76 -224h-78z" />
    <glyph glyph-name="uni021B" unicode="&#x21b;" horiz-adv-x="1548" 
d="M750 0h-74v1427h-676v74h1427v-74h-677v-1427zM616 -297l76 223h78l-76 -223h-78z" />
    <glyph glyph-name="uni022A" unicode="&#x22a;" horiz-adv-x="2025" 
d="M1522 0h-969q-161 0 -275 114t-114 275v723q0 161 114 276t275 115h969q161 0 275 -115t114 -276v-723q0 -161 -114 -275t-275 -114zM1522 1430h-969q-130 0 -223.5 -93.5t-93.5 -224.5v-723q0 -130 93 -222.5t224 -92.5h969q131 0 224 92.5t93 222.5v723
q0 131 -93.5 224.5t-223.5 93.5zM864 1763h-73v174h73v-174zM1192 1763h-74v174h74v-174zM680 1583v74h663v-74h-663z" />
    <glyph glyph-name="uni022B" unicode="&#x22b;" horiz-adv-x="2025" 
d="M1522 0h-969q-161 0 -275 114t-114 275v723q0 161 114 276t275 115h969q161 0 275 -115t114 -276v-723q0 -161 -114 -275t-275 -114zM1522 1430h-969q-130 0 -223.5 -93.5t-93.5 -224.5v-723q0 -130 93 -222.5t224 -92.5h969q131 0 224 92.5t93 222.5v723
q0 131 -93.5 224.5t-223.5 93.5zM866 1817h-73v174h73v-174zM1194 1817h-74v174h74v-174zM680 1632v74h663v-74h-663z" />
    <glyph glyph-name="circumflex" unicode="&#x2c6;" 
d="M842 1487l270 -217h-115l-155 123l-158 -123h-119z" />
    <glyph glyph-name="caron" unicode="&#x2c7;" horiz-adv-x="1728" 
d="M852 1153l-270 215l45 57l225 -178l231 180l45 -59z" />
    <glyph glyph-name="breve" unicode="&#x2d8;" 
d="M969 1262h-244q-67 0 -126 34t-93 93l63 36q23 -42 65 -66t91 -24h244q47 0 88.5 24.5t66.5 65.5l64 -36q-34 -59 -93 -93t-126 -34z" />
    <glyph glyph-name="dotaccent" unicode="&#x2d9;" horiz-adv-x="1323" 
d="M692 1583h-74v174h74v-174z" />
    <glyph glyph-name="ring" unicode="&#x2da;" horiz-adv-x="1656" 
d="M807 1591q-65 0 -110.5 45.5t-45.5 110.5t45.5 110.5t110.5 45.5q63 0 108.5 -46t45.5 -110t-45.5 -110t-108.5 -46zM807 1837q-38 0 -65 -26.5t-27 -63.5q0 -38 27 -64t65 -26q37 0 63.5 26t26.5 64q0 37 -26.5 63.5t-63.5 26.5z" />
    <glyph glyph-name="ogonek" unicode="&#x2db;" 
d="M969 -395h-111q-47 0 -87 21t-62 57q-40 69 8 151l127 221l63 -37l-125 -221q-28 -48 -10 -78q10 -19 34 -30t52 -11h111v-73z" />
    <glyph glyph-name="tilde" unicode="&#x2dc;" 
d="M1018 1198q-90 0 -158 45q-63 43 -147 33q-78 -9 -133 -70l-56 49q74 81 178 93q107 15 197 -43q70 -42 148 -33q81 12 135 69l53 -49q-74 -80 -178 -92q-12 -2 -39 -2z" />
    <glyph glyph-name="hungarumlaut" unicode="&#x2dd;" horiz-adv-x="1667" 
d="M872 1237h-88l134 223h88zM1083 1237h-88l133 223h89z" />
    <glyph glyph-name="uni0400" unicode="&#x400;" horiz-adv-x="1691" 
d="M164 252v997q0 104 73.5 178t176.5 74h1030v-71h-1030q-73 0 -125.5 -53.5t-52.5 -127.5v-463h1130v-73h-1130v-461q0 -74 52 -126t126 -52h1030v-74h-1030q-103 0 -176.5 74t-73.5 178zM915 1585h-88l-133 223h88z" />
    <glyph glyph-name="afii10023" unicode="&#x401;" horiz-adv-x="1691" 
d="M164 252v997q0 104 73.5 178t176.5 74h1112v-71h-1112q-73 0 -125.5 -53.5t-52.5 -127.5v-463h1212v-73h-1212v-461q0 -74 52 -126t126 -52h1112v-74h-1112q-103 0 -176.5 74t-73.5 178z" />
    <glyph glyph-name="afii10052" unicode="&#x403;" horiz-adv-x="1568" 
d="M1335 1501v-74h-962q-56 0 -95.5 -39t-39.5 -94v-1294h-74v1294q0 85 61.5 146t147.5 61h962zM762 1659h-88l133 223h88z" />
    <glyph glyph-name="uni0406" unicode="&#x406;" 
 />
    <glyph glyph-name="afii10056" unicode="&#x407;" 
 />
    <glyph glyph-name="afii10059" unicode="&#x40a;" horiz-adv-x="2979" 
d="M1513 786h969q106 0 181 -75t75 -181v-272q0 -106 -75 -182t-181 -76h-1042v713h-1196v-713h-74v1501h74v-715h1196v715h73v-715zM1513 713v-639h969q76 0 130 54t54 130v272q0 75 -54 129t-130 54h-969z" />
    <glyph glyph-name="afii10060" unicode="&#x40b;" horiz-adv-x="1908" 
d="M1319 1075q161 0 275 -114t114 -275v-686h-72v686q0 130 -93 222.5t-224 92.5h-416q-131 0 -224 -92.5t-93 -222.5v-686h-74v1427h-512v74h1079v-74h-493v-516q54 75 137.5 119.5t179.5 44.5h416z" />
    <glyph glyph-name="afii10061" unicode="&#x40c;" horiz-adv-x="1898" 
d="M1208 735q45 -35 107 -129l422 -606h-88l-394 565q-58 85 -96 116.5t-100 31.5h-821v-713h-72v1501h72v-715h821q62 0 100 32t96 118l394 565h90l-424 -606q-61 -93 -107 -131q-3 -2 -9 -7t-9 -7q9 -6 18 -15zM926 1659h-88l133 223h88z" />
    <glyph glyph-name="uni040D" unicode="&#x40d;" horiz-adv-x="1918" 
d="M238 1501v-1364q0 -55 41 -67q21 -7 47 1.5t43 34.5h2l1003 1326q29 43 80 59q44 17 94 4q40 -12 66 -49q26 -41 26 -90v-1364h-73v1364q0 57 -41 69q-22 7 -47.5 -1.5t-44.5 -34.5v-3l-1006 -1323q-28 -45 -78 -61q-47 -18 -94 -2q-46 14 -66 47q-26 36 -26 90v1364h74z
M967 1585h-88l-134 223h89z" />
    <glyph glyph-name="afii10062" unicode="&#x40e;" horiz-adv-x="1939" 
d="M174 1499h72v-659q0 -75 54 -129t130 -54h971q73 0 126 51t56 123v670h74v-661v-11v-571q0 -106 -75 -182t-181 -76h-1190v74h1190q75 0 128.5 54t53.5 130v401q-75 -75 -182 -75h-971q-106 0 -181 75t-75 181v659zM1657 1501h-74h74zM1030 1581h-244q-67 0 -126 34
t-93 93l64 37q23 -42 64.5 -66t90.5 -24h244q47 0 89 24.5t67 65.5l63 -37q-34 -59 -93 -93t-126 -34z" />
    <glyph glyph-name="afii10145" unicode="&#x40f;" 
d="M1440 1501h71v-1386q0 -50 -32 -82q-33 -33 -82 -33h-51h-74h-389v-326h-74v326h-530q-49 0 -82 33t-33 82v1386h72v-1386q0 -19 12 -31q16 -12 31 -12h993h74h51q14 0 30 12q13 13 13 31v1386z" />
    <glyph glyph-name="afii10017" unicode="&#x410;" horiz-adv-x="1822" 
d="M350 455l-176 -455h-80l524 1337q30 77 95 129q68 50 153 50q89 0 154 -50t96 -129l522 -1337h-77l-179 455h-1032zM866 1444q-60 0 -107.5 -35.5t-72.5 -97.5l-307 -783h975l-307 783q-23 62 -71.5 97.5t-109.5 35.5z" />
    <glyph glyph-name="afii10018" unicode="&#x411;" horiz-adv-x="1802" 
d="M164 0v1501h1370v-74h-1296v-522h1050q106 0 181 -75t75 -181v-391q0 -106 -75 -182t-181 -76h-1124zM238 831v-757h1050q77 0 131 54t54 130v391q0 75 -54.5 128.5t-130.5 53.5h-1050z" />
    <glyph glyph-name="afii10019" unicode="&#x412;" horiz-adv-x="1835" 
d="M1493 754q62 -32 98.5 -93t36.5 -133v-272q0 -106 -75 -181t-181 -75h-1171v2h-37v1501h1188q106 0 181 -76t75 -182v-278q0 -65 -31 -122t-84 -91zM238 1430v-646h1114q76 0 130 54t54 129v278q0 77 -54 131t-130 54h-1114zM1556 256v272q0 75 -54 129t-130 54h-1134
v-637h1134q76 0 130 53.5t54 128.5z" />
    <glyph glyph-name="afii10020" unicode="&#x413;" horiz-adv-x="1495" 
d="M1335 1501v-74h-962q-56 0 -95.5 -39t-39.5 -94v-1294h-74v1294q0 85 61.5 146t147.5 61h962z" />
    <glyph glyph-name="afii10021" unicode="&#x414;" horiz-adv-x="2131" 
d="M1931 -221v178q0 19 -12 31q-16 12 -31 12h-1712q-15 0 -31 -12q-12 -12 -12 -31v-178h-72v178q0 49 33 82t82 33h115l497 1265q30 77 95 129q68 50 153 50q89 0 154 -50t96 -129l494 -1265h108q49 0 82 -33t33 -82v-178h-72zM1036 1444q-60 0 -107.5 -35.5t-72.5 -97.5
l-485 -1239h1331l-485 1239q-23 62 -71.5 97.5t-109.5 35.5z" />
    <glyph glyph-name="afii10022" unicode="&#x415;" horiz-adv-x="1691" 
d="M164 252v997q0 104 73.5 178t176.5 74h1030v-71h-1030q-73 0 -125.5 -53.5t-52.5 -127.5v-463h1130v-73h-1130v-461q0 -74 52 -126t126 -52h1030v-74h-1030q-103 0 -176.5 74t-73.5 178z" />
    <glyph glyph-name="afii10024" unicode="&#x416;" horiz-adv-x="3112" 
d="M2396 735q45 -35 107 -129l422 -606h-89l-393 565q-58 85 -96 116.5t-100 31.5h-678v-713h-72v713h-678q-62 0 -100 -31.5t-96 -116.5l-394 -565h-88l422 606q62 94 107 129q9 9 18 15q-3 2 -9 7t-9 7q-46 38 -107 131l-424 606h90l394 -565q58 -86 96 -118t100 -32h678
v715h72v-715h678q62 0 100 32t96 118l393 565h91l-424 -606q-61 -93 -107 -131q-3 -2 -9 -7t-9 -7q9 -6 18 -15z" />
    <glyph glyph-name="afii10025" unicode="&#x417;" horiz-adv-x="1816" 
d="M1602 999q0 -68 -33.5 -126.5t-89.5 -92.5q56 -34 89.5 -92.5t33.5 -126.5v-305q0 -106 -75 -181t-181 -75h-924q-106 0 -181 75t-75 181h72q0 -75 54 -128.5t130 -53.5h924q76 0 130 53.5t54 128.5v305q0 75 -53.5 128.5t-128.5 53.5h-2h-924v74h924h2q75 0 128.5 53.5
t53.5 128.5v246q0 77 -54 131t-130 54h-924q-76 0 -130 -54t-54 -131h-72q0 106 75 182t181 76h924q106 0 181 -76t75 -182v-246z" />
    <glyph glyph-name="afii10026" unicode="&#x418;" horiz-adv-x="1918" 
d="M238 1501v-1364q0 -55 41 -67q21 -7 47 1.5t43 34.5h2l1003 1326q29 43 80 59q44 17 94 4q40 -12 66 -49q26 -41 26 -90v-1364h-73v1364q0 57 -41 69q-22 7 -47.5 -1.5t-44.5 -34.5v-3l-1006 -1323q-28 -45 -78 -61q-47 -18 -94 -2q-46 14 -66 47q-26 36 -26 90v1364h74z
" />
    <glyph glyph-name="afii10027" unicode="&#x419;" horiz-adv-x="1837" 
d="M238 1501v-1364q0 -55 41 -67q21 -7 47 1.5t43 34.5h2l1003 1326q29 43 80 59q44 17 94 4q40 -12 66 -49q26 -41 26 -90v-1364h-73v1364q0 57 -41 69q-22 7 -47.5 -1.5t-44.5 -34.5v-3l-1006 -1323q-28 -45 -78 -61q-47 -18 -94 -2q-46 14 -66 47q-26 36 -26 90v1364h74z
M1040 1585h-243q-67 0 -126 34t-93 93l63 37q23 -42 65 -66t91 -24h243q47 0 89 24.5t67 65.5l64 -37q-34 -58 -93 -92.5t-127 -34.5z" />
    <glyph glyph-name="afii10028" unicode="&#x41a;" horiz-adv-x="1898" 
d="M1208 735q45 -35 107 -129l422 -606h-88l-394 565q-58 85 -96 116.5t-100 31.5h-821v-713h-72v1501h72v-715h821q62 0 100 32t96 118l394 565h90l-424 -606q-61 -93 -107 -131q-3 -2 -9 -7t-9 -7q9 -6 18 -15z" />
    <glyph glyph-name="afii10029" unicode="&#x41b;" horiz-adv-x="1822" 
d="M174 0h-80l524 1337q30 77 95 129q68 50 153 50q89 0 154 -50t96 -129l522 -1337h-77l-514 1311q-23 62 -71.5 97.5t-109.5 35.5q-60 0 -107.5 -35.5t-72.5 -97.5z" />
    <glyph glyph-name="afii10030" unicode="&#x41c;" horiz-adv-x="2516" 
d="M2150 1356v-1356h-73v1356q0 55 -41 67q-22 7 -47 -2t-43 -35l-789 -1165l-788 1165q-17 26 -43 35t-47 2q-41 -12 -41 -67v-1356h-74v1356q0 54 26 90q20 33 66 47q47 16 94 -2q52 -20 80 -61l727 -1078l727 1078q28 41 80 61q46 18 94 2q42 -12 66 -47q26 -36 26 -90z
" />
    <glyph glyph-name="afii10031" unicode="&#x41d;" horiz-adv-x="1921" 
d="M1638 0h-73v713h-1319v-713h-74v1501h74v-715h1319v715h73v-1501z" />
    <glyph glyph-name="afii10032" unicode="&#x41e;" horiz-adv-x="2236" 
d="M1522 0h-969q-161 0 -275 114t-114 275v723q0 161 114 276t275 115h969q161 0 275 -115t114 -276v-723q0 -161 -114 -275t-275 -114zM1522 1430h-969q-130 0 -223.5 -93.5t-93.5 -224.5v-723q0 -130 93 -222.5t224 -92.5h969q131 0 224 92.5t93 222.5v723
q0 131 -93.5 224.5t-223.5 93.5z" />
    <glyph glyph-name="afii10033" unicode="&#x41f;" horiz-adv-x="1898" 
d="M1624 0h-72v1386q0 19 -12 31q-17 13 -31 13h-1230q-14 0 -31 -13q-12 -12 -12 -31v-1386h-72v1386q0 49 33 82t82 33h1230q49 0 82 -33t33 -82v-1386z" />
    <glyph glyph-name="afii10034" unicode="&#x420;" horiz-adv-x="1808" 
d="M1341 578h-1050v-576h-74v1501h1124q106 0 181 -76t75 -182v-411q0 -106 -75 -181t-181 -75zM291 1430v-779h1050q76 0 130.5 54t54.5 129v411q0 77 -54 131t-131 54h-1050z" />
    <glyph glyph-name="afii10035" unicode="&#x421;" horiz-adv-x="1775" 
d="M1575 1503v-73h-1022q-130 0 -223.5 -93.5t-93.5 -224.5v-723q0 -130 93 -222.5t224 -92.5h1022v-74h-1022q-161 0 -275 114t-114 275v723q0 161 114 276t275 115h1022z" />
    <glyph glyph-name="afii10036" unicode="&#x422;" horiz-adv-x="1548" 
d="M750 0h-74v1427h-676v74h1427v-74h-677v-1427z" />
    <glyph glyph-name="afii10037" unicode="&#x423;" horiz-adv-x="1939" 
d="M174 1499h72v-659q0 -75 54 -129t130 -54h971q73 0 126 51t56 123v670h74v-661v-11v-571q0 -106 -75 -182t-181 -76h-1190v74h1190q75 0 128.5 54t53.5 130v401q-75 -75 -182 -75h-971q-106 0 -181 75t-75 181v659zM1657 1501h-74h74z" />
    <glyph glyph-name="afii10038" unicode="&#x424;" horiz-adv-x="2461" 
d="M1257 -139h-73v139h-631q-161 0 -275 114t-114 275v721q0 161 114 276t275 115h631v107h73v-107h613q161 0 275 -115t114 -276v-721q0 -161 -114 -275t-275 -114h-613v-139zM1184 1427h-631q-131 0 -224 -93.5t-93 -223.5v-721q0 -130 93 -222.5t224 -92.5h631v1353z
M1257 74h613q131 0 224 92.5t93 222.5v721q0 130 -93.5 223.5t-223.5 93.5h-613v-1353z" />
    <glyph glyph-name="afii10039" unicode="&#x425;" horiz-adv-x="1599" 
d="M1444 0h-94l-586 690l-584 -690h-98l633 748l-637 753h94l590 -698l590 698h100l-641 -756z" />
    <glyph glyph-name="afii10040" unicode="&#x426;" horiz-adv-x="2048" 
d="M1800 39q33 -33 33 -82v-178h-72v178q0 19 -12 31q-16 12 -31 12h-172h-1267q-49 0 -82 33t-33 82v1386h72v-1386q0 -19 12 -31q16 -12 31 -12h1267q15 0 31 12q12 12 12 31v1386h72v-1386q0 -24 -8 -43h65q49 0 82 -33z" />
    <glyph glyph-name="afii10041" unicode="&#x427;" horiz-adv-x="1884" 
d="M174 1499h72v-708q0 -75 54 -129t130 -54h971q73 0 126 51t56 123v719h74v-721v-780h-74v610q-75 -75 -182 -75h-971q-106 0 -181 75t-75 181v708zM1657 1501h-74h74z" />
    <glyph glyph-name="afii10042" unicode="&#x428;" horiz-adv-x="2580" 
d="M2347 1501h72v-1386q0 -49 -33 -82t-82 -33h-2025q-49 0 -82 33t-33 82v1386h72v-1386q0 -19 12 -31q16 -12 31 -12h976v1429h72v-1429h977q15 0 31 12q12 12 12 31v1386z" />
    <glyph glyph-name="afii10043" unicode="&#x429;" horiz-adv-x="2816" 
d="M2558 39q33 -33 33 -82v-178h-72v178q0 19 -12 31q-16 12 -31 12h-172h-2025q-49 0 -82 33t-33 82v1386h72v-1386q0 -19 12 -31q16 -12 31 -12h976v1429h72v-1429h977q15 0 31 12q12 12 12 31v1386h72v-1386q0 -22 -9 -43h66q49 0 82 -33z" />
    <glyph glyph-name="afii10044" unicode="&#x42a;" horiz-adv-x="2025" 
d="M4 1427v74h459v-575h1091q106 0 181 -75t75 -181v-412q0 -106 -75 -182t-181 -76h-1165v1427h-385zM463 852v-778h1091q77 0 131 54t54 130v412q0 75 -54.5 128.5t-130.5 53.5h-1091z" />
    <glyph glyph-name="afii10045" unicode="&#x42b;" horiz-adv-x="1851" 
d="M238 926h1050q106 0 181 -75t75 -181v-412q0 -106 -75 -182t-181 -76h-1124v1501h74v-575zM238 852v-778h1050q77 0 131 54t54 130v412q0 75 -54.5 128.5t-130.5 53.5h-1050zM1753 0h-74v1501h74v-1501z" />
    <glyph glyph-name="afii10046" unicode="&#x42c;" horiz-adv-x="1759" 
d="M242 928h1050q106 0 181 -75t75 -181v-412q0 -106 -75 -182t-181 -76h-1124v1501h74v-575zM242 854v-778h1050q77 0 131 54t54 130v412q0 75 -54.5 128.5t-130.5 53.5h-1050z" />
    <glyph glyph-name="afii10047" unicode="&#x42d;" horiz-adv-x="1953" 
d="M1540 1260q123 -213 123 -508q0 -297 -123 -510q-65 -110 -160 -174q-103 -68 -227 -68h-989v74h989q204 0 324 205q103 174 112 436h-1423v71h1423q-9 264 -112 437q-119 204 -324 204h-989v74h989q126 0 227 -67q95 -64 160 -174z" />
    <glyph glyph-name="afii10048" unicode="&#x42e;" horiz-adv-x="2488" 
d="M1909 0h-969q-161 0 -275 114t-114 275v723q0 161 114 276t275 115h969q161 0 275 -115t114 -276v-723q0 -161 -114 -275t-275 -114zM940 1430q-130 0 -223.5 -93.5t-93.5 -224.5v-723q0 -130 93 -222.5t224 -92.5h969q131 0 224 92.5t93 222.5v723q0 131 -93.5 224.5
t-223.5 93.5h-969zM238 0h-74v1501h74v-1501zM184 709v73h420v-73h-420z" />
    <glyph glyph-name="afii10049" unicode="&#x42f;" horiz-adv-x="1888" 
d="M166 0l436 578h-117q-106 0 -181 75t-75 181v411q0 106 75 182t181 76h1145v-1501h-74v576h-862l-436 -578h-92zM1556 1430h-1071q-76 0 -130 -54t-54 -131v-411q0 -75 54 -129t130 -54h1071v779z" />
    <glyph glyph-name="afii10065" unicode="&#x430;" horiz-adv-x="1822" 
d="M727 1311l-512 -1311h-80l524 1337q30 77 95 129q68 50 153 50q89 0 154 -50t96 -129l522 -1337h-77l-179 455h-868v73h840l-308 783q-23 62 -71 97.5t-109 35.5q-60 0 -107.5 -35.5t-72.5 -97.5z" />
    <glyph glyph-name="afii10066" unicode="&#x431;" horiz-adv-x="1738" 
d="M238 1427v-1353h1050q77 0 131 54t54 130v391q0 75 -54.5 128.5t-130.5 53.5h-926v74h926q106 0 181 -75t75 -181v-391q0 -106 -75 -182t-181 -76h-1124v1501h1370v-74h-1296z" />
    <glyph glyph-name="afii10067" unicode="&#x432;" horiz-adv-x="1808" 
d="M1450 756q62 -32 98.5 -93t36.5 -133v-274q0 -106 -75 -181t-181 -75h-1128v2h-37v1501h1145q106 0 181 -76t75 -182v-276q0 -65 -31 -122t-84 -91zM362 713v73h947q76 0 130 54t54 129v276q0 77 -54 131t-130 54h-1071v-1356h1091q76 0 130 53.5t54 128.5v274
q0 75 -54 129t-130 54h-967z" />
    <glyph glyph-name="afii10068" unicode="&#x433;" horiz-adv-x="1568" 
d="M1335 1501v-74h-962q-56 0 -95.5 -39t-39.5 -94v-1294h-74v1294q0 85 61.5 146t147.5 61h962z" />
    <glyph glyph-name="afii10069" unicode="&#x434;" horiz-adv-x="2015" 
d="M1786 72h203v-72h-1887v72h197l496 1265q31 78 94 129q68 50 153 50q89 0 154 -50t96 -129zM379 72h1329l-485 1239q-23 62 -71.5 97.5t-109.5 35.5q-60 0 -107.5 -35.5t-72.5 -97.5z" />
    <glyph glyph-name="afii10070" unicode="&#x435;" horiz-adv-x="1691" 
d="M362 713v73h1086v-73h-1086zM236 1249v-997q0 -74 52 -126t126 -52h1112v-74h-1112q-103 0 -176.5 74t-73.5 178v997q0 104 73.5 178t176.5 74h1112v-71h-1112q-73 0 -125.5 -53.5t-52.5 -127.5z" />
    <glyph glyph-name="afii10072" unicode="&#x436;" horiz-adv-x="3112" 
d="M1569 1501v-1501h-72v713h-678q-62 0 -100 -31.5t-96 -116.5l-394 -565h-88l422 606q62 94 107 129q9 9 18 15q-3 2 -9 7t-9 7q-46 38 -107 131l-424 606h90l394 -565q58 -86 96 -118t100 -32h678v715h72zM1642 713v73h605q62 0 100 32t96 118l393 565h91l-424 -606
q-61 -93 -107 -131q-3 -2 -9 -7t-9 -7q9 -6 18 -15q45 -35 107 -129l422 -606h-89l-393 565q-58 85 -96 116.5t-100 31.5h-605z" />
    <glyph glyph-name="afii10073" unicode="&#x437;" horiz-adv-x="1816" 
d="M1602 999q0 -68 -33.5 -126.5t-89.5 -92.5q56 -34 89.5 -92.5t33.5 -126.5v-305q0 -106 -75 -181t-181 -75h-924q-106 0 -181 75t-75 181h72q0 -75 54 -128.5t130 -53.5h924q76 0 130 53.5t54 128.5v305q0 75 -53.5 128.5t-128.5 53.5h-2h-924v74h924h2q75 0 128.5 53.5
t53.5 128.5v246q0 77 -54 131t-130 54h-924q-76 0 -130 -54t-54 -131h-72q0 106 75 182t181 76h924q106 0 181 -76t75 -182v-246z" />
    <glyph glyph-name="afii10074" unicode="&#x438;" horiz-adv-x="1837" 
d="M238 1501v-1364q0 -55 41 -67q21 -7 47 1.5t43 34.5h2l1003 1326q29 43 80 59q44 17 94 4q40 -12 66 -49q26 -41 26 -90v-1364h-73v1364q0 57 -41 69q-22 7 -47.5 -1.5t-44.5 -34.5v-3l-1006 -1323q-28 -45 -78 -61q-47 -18 -94 -2q-46 14 -66 47q-26 36 -26 90v1364h74z
" />
    <glyph glyph-name="afii10075" unicode="&#x439;" horiz-adv-x="1837" 
d="M238 1501v-1364q0 -55 41 -67q21 -7 47 1.5t43 34.5h2l1003 1326q29 43 80 59q44 17 94 4q40 -12 66 -49q26 -41 26 -90v-1364h-73v1364q0 57 -41 69q-22 7 -47.5 -1.5t-44.5 -34.5v-3l-1006 -1323q-28 -45 -78 -61q-47 -18 -94 -2q-46 14 -66 47q-26 36 -26 90v1364h74z
M1040 1587h-243q-67 0 -126 34t-93 93l63 37q23 -42 65 -66t91 -24h243q47 0 89 24.5t67 65.5l64 -37q-34 -58 -93 -92.5t-127 -34.5z" />
    <glyph glyph-name="afii10076" unicode="&#x43a;" horiz-adv-x="1898" 
d="M236 1501v-1501h-72v1501h72zM362 713v73h695q62 0 100 32t96 118l394 565h90l-424 -606q-61 -93 -107 -131q-3 -2 -9 -7t-9 -7q9 -6 18 -15q45 -35 107 -129l422 -606h-88l-394 565q-58 85 -96 116.5t-100 31.5h-695z" />
    <glyph glyph-name="afii10077" unicode="&#x43b;" horiz-adv-x="1822" 
d="M174 0h-80l524 1337q30 77 95 129q68 50 153 50q89 0 154 -50t96 -129l522 -1337h-77l-514 1311q-23 62 -71.5 97.5t-109.5 35.5q-60 0 -107.5 -35.5t-72.5 -97.5z" />
    <glyph glyph-name="afii10078" unicode="&#x43c;" horiz-adv-x="2304" 
d="M2023 0h-73v1386l-828 -1150h-59l-825 1150v-1386h-74v1501h82l848 -1182l848 1182h81v-1501z" />
    <glyph glyph-name="afii10079" unicode="&#x43d;" horiz-adv-x="1884" 
d="M1671 0h-74v713h-1235v73h1235v715h74v-1501zM238 0h-74v1501h74v-1501z" />
    <glyph glyph-name="afii10080" unicode="&#x43e;" horiz-adv-x="2187" 
d="M1522 0h-969q-161 0 -275 114t-114 275v723q0 161 114 276t275 115h969q161 0 275 -115t114 -276v-723q0 -161 -114 -275t-275 -114zM1522 1430h-969q-130 0 -223.5 -93.5t-93.5 -224.5v-723q0 -130 93 -222.5t224 -92.5h969q131 0 224 92.5t93 222.5v723
q0 131 -93.5 224.5t-223.5 93.5z" />
    <glyph glyph-name="afii10081" unicode="&#x43f;" horiz-adv-x="1880" 
d="M1624 0h-72v1386q0 19 -12 31q-17 13 -31 13h-1230q-14 0 -31 -13q-12 -12 -12 -31v-1386h-72v1386q0 49 33 82t82 33h1230q49 0 82 -33t33 -82v-1386z" />
    <glyph glyph-name="afii10082" unicode="&#x440;" horiz-adv-x="1781" 
d="M238 1430v-1428h-74v1501h1124q106 0 181 -76t75 -182v-411q0 -106 -75 -181t-181 -75h-926v73h926q76 0 130.5 54t54.5 129v411q0 77 -54.5 131t-130.5 54h-1050z" />
    <glyph glyph-name="afii10083" unicode="&#x441;" horiz-adv-x="1775" 
d="M1575 1503v-73h-1022q-130 0 -223.5 -93.5t-93.5 -224.5v-723q0 -130 93 -222.5t224 -92.5h1022v-74h-1022q-161 0 -275 114t-114 275v723q0 161 114 276t275 115h1022z" />
    <glyph glyph-name="afii10084" unicode="&#x442;" horiz-adv-x="1548" 
d="M750 0h-74v1427h-676v74h1427v-74h-677v-1427z" />
    <glyph glyph-name="afii10085" unicode="&#x443;" horiz-adv-x="1939" 
d="M174 1499h72v-659q0 -75 54 -129t130 -54h971q73 0 126 51t56 123v670h74v-661v-11v-571q0 -106 -75 -182t-181 -76h-1190v74h1190q75 0 128.5 54t53.5 130v401q-75 -75 -182 -75h-971q-106 0 -181 75t-75 181v659zM1657 1501h-74h74z" />
    <glyph glyph-name="afii10086" unicode="&#x444;" horiz-adv-x="2461" 
d="M1257 -139h-73v139h-631q-161 0 -275 114t-114 275v721q0 161 114 276t275 115h631v107h73v-107h613q161 0 275 -115t114 -276v-721q0 -161 -114 -275t-275 -114h-613v-139zM1184 1427h-631q-131 0 -224 -93.5t-93 -223.5v-721q0 -130 93 -222.5t224 -92.5h631v1353z
M1257 74h613q131 0 224 92.5t93 222.5v721q0 130 -93.5 223.5t-223.5 93.5h-613v-1353z" />
    <glyph glyph-name="afii10087" unicode="&#x445;" horiz-adv-x="1599" 
d="M1444 0h-94l-586 690l-584 -690h-98l633 748l-637 753h94l590 -698l590 698h100l-641 -756z" />
    <glyph glyph-name="afii10088" unicode="&#x446;" horiz-adv-x="2004" 
d="M1800 39q33 -33 33 -82v-178h-72v178q0 19 -12 31q-16 12 -31 12h-172h-1267q-49 0 -82 33t-33 82v1386h72v-1386q0 -19 12 -31q16 -12 31 -12h1267q15 0 31 12q12 12 12 31v1386h72v-1386q0 -24 -8 -43h65q49 0 82 -33z" />
    <glyph glyph-name="afii10089" unicode="&#x447;" horiz-adv-x="1884" 
d="M174 1499h72v-708q0 -75 54 -129t130 -54h971q73 0 126 51t56 123v719h74v-721v-780h-74v610q-75 -75 -182 -75h-971q-106 0 -181 75t-75 181v708zM1657 1501h-74h74z" />
    <glyph glyph-name="afii10090" unicode="&#x448;" horiz-adv-x="2635" 
d="M2347 1501h72v-1386q0 -49 -33 -82t-82 -33h-2025q-49 0 -82 33t-33 82v1386h72v-1386q0 -19 12 -31q16 -12 31 -12h976v1429h72v-1429h977q15 0 31 12q12 12 12 31v1386z" />
    <glyph glyph-name="afii10091" unicode="&#x449;" horiz-adv-x="2820" 
d="M2558 39q33 -33 33 -82v-178h-72v178q0 19 -12 31q-16 12 -31 12h-172h-2025q-49 0 -82 33t-33 82v1386h72v-1386q0 -19 12 -31q16 -12 31 -12h976v1429h72v-1429h977q15 0 31 12q12 12 12 31v1386h72v-1386q0 -22 -9 -43h66q49 0 82 -33z" />
    <glyph glyph-name="afii10092" unicode="&#x44a;" horiz-adv-x="2025" 
d="M463 1501v-1427h1091q77 0 131 54t54 130v412q0 75 -54.5 128.5t-130.5 53.5h-989v74h989q106 0 181 -75t75 -181v-412q0 -106 -75 -182t-181 -76h-1165v1427h-385v74h459z" />
    <glyph glyph-name="afii10093" unicode="&#x44b;" horiz-adv-x="1984" 
d="M238 1501v-1427h1050q77 0 131 54t54 130v412q0 75 -54.5 128.5t-130.5 53.5h-926v74h926q106 0 181 -75t75 -181v-412q0 -106 -75 -182t-181 -76h-1124v1501h74zM1782 0h-74v1501h74v-1501z" />
    <glyph glyph-name="afii10094" unicode="&#x44c;" horiz-adv-x="1759" 
d="M238 1501v-1427h1050q77 0 131 54t54 130v412q0 75 -54.5 128.5t-130.5 53.5h-926v74h926q106 0 181 -75t75 -181v-412q0 -106 -75 -182t-181 -76h-1124v1501h74z" />
    <glyph glyph-name="afii10095" unicode="&#x44d;" horiz-adv-x="1953" 
d="M1540 1260q123 -213 123 -508q0 -297 -123 -510q-65 -110 -160 -174q-103 -68 -227 -68h-989v74h989q204 0 324 205q103 174 112 436h-1423v71h1423q-9 264 -112 437q-119 204 -324 204h-989v74h989q126 0 227 -67q95 -64 160 -174z" />
    <glyph glyph-name="afii10096" unicode="&#x44e;" horiz-adv-x="2488" 
d="M1909 0h-969q-161 0 -275 114t-114 275v723q0 161 114 276t275 115h969q161 0 275 -115t114 -276v-723q0 -161 -114 -275t-275 -114zM940 1430q-130 0 -223.5 -93.5t-93.5 -224.5v-723q0 -130 93 -222.5t224 -92.5h969q131 0 224 92.5t93 222.5v723q0 131 -93.5 224.5
t-223.5 93.5h-969zM238 0h-74v1501h74v-1501zM184 709v73h420v-73h-420z" />
    <glyph glyph-name="afii10097" unicode="&#x44f;" horiz-adv-x="1966" 
d="M1556 2v1428h-1071q-76 0 -130 -54t-54 -131v-411q0 -75 54 -129t130 -54h947v-73h-738l-436 -578h-92l436 578h-117q-106 0 -181 75t-75 181v411q0 106 75 182t181 76h1145v-1501h-74z" />
    <glyph glyph-name="afii10071" unicode="&#x451;" horiz-adv-x="1691" 
d="M362 713v73h1086v-73h-1086zM236 1249v-997q0 -74 52 -126t126 -52h1112v-74h-1112q-103 0 -176.5 74t-73.5 178v997q0 104 73.5 178t176.5 74h1112v-71h-1112q-73 0 -125.5 -53.5t-52.5 -127.5zM786 1583h-73v174h73v-174zM1114 1583h-74v174h74v-174z" />
    <glyph glyph-name="afii10100" unicode="&#x453;" horiz-adv-x="1568" 
d="M1335 1501v-74h-962q-56 0 -95.5 -39t-39.5 -94v-1294h-74v1294q0 85 61.5 146t147.5 61h962zM762 1585h-88l133 223h88z" />
    <glyph glyph-name="afii10109" unicode="&#x45c;" horiz-adv-x="1898" 
d="M236 1501v-1501h-72v1501h72zM362 713v73h695q62 0 100 32t96 118l394 565h90l-424 -606q-61 -93 -107 -131q-3 -2 -9 -7t-9 -7q9 -6 18 -15q45 -35 107 -129l422 -606h-88l-394 565q-58 85 -96 116.5t-100 31.5h-695zM838 1237h88l133 223h-88z" />
    <glyph glyph-name="afii10110" unicode="&#x45e;" horiz-adv-x="1939" 
d="M174 1499h72v-659q0 -75 54 -129t130 -54h971q73 0 126 51t56 123v670h74v-661v-11v-571q0 -106 -75 -182t-181 -76h-1190v74h1190q75 0 128.5 54t53.5 130v401q-75 -75 -182 -75h-971q-106 0 -181 75t-75 181v659zM1657 1501h-74h74zM1092 1585h-244q-67 0 -126 34
t-93 93l63 37q23 -42 65 -66t91 -24h244q47 0 88.5 24.5t66.5 65.5l64 -37q-34 -59 -93 -93t-126 -34z" />
    <glyph glyph-name="uni0492" unicode="&#x492;" 
 />
    <glyph glyph-name="uni04C1" unicode="&#x4c1;" horiz-adv-x="3112" 
d="M2396 735q45 -35 107 -129l422 -606h-89l-393 565q-58 85 -96 116.5t-100 31.5h-678v-713h-72v713h-678q-62 0 -100 -31.5t-96 -116.5l-394 -565h-88l422 606q62 94 107 129q9 9 18 15q-3 2 -9 7t-9 7q-46 38 -107 131l-424 606h90l394 -565q58 -86 96 -118t100 -32h678
v715h72v-715h678q62 0 100 32t96 118l393 565h91l-424 -606q-61 -93 -107 -131q-3 -2 -9 -7t-9 -7q9 -6 18 -15zM1677 1683h-243q-68 0 -127 34.5t-93 92.5l64 37q23 -42 65 -66t91 -24h243q47 0 89 24.5t67 65.5l63 -37q-34 -59 -93 -93t-126 -34z" />
    <glyph glyph-name="uni04C2" unicode="&#x4c2;" horiz-adv-x="3112" 
d="M1569 1501v-1501h-72v713h-678q-62 0 -100 -31.5t-96 -116.5l-394 -565h-88l422 606q62 94 107 129q9 9 18 15q-3 2 -9 7t-9 7q-46 38 -107 131l-424 606h90l394 -565q58 -86 96 -118t100 -32h678v715h72zM1642 713v73h605q62 0 100 32t96 118l393 565h91l-424 -606
q-61 -93 -107 -131q-3 -2 -9 -7t-9 -7q9 -6 18 -15q45 -35 107 -129l422 -606h-89l-393 565q-58 85 -96 116.5t-100 31.5h-605zM1657 1567h-244q-67 0 -126 34t-93 93l63 37q23 -42 65 -66.5t91 -24.5h244q47 0 88.5 24.5t66.5 66.5l64 -37q-34 -59 -93 -93t-126 -34z" />
    <glyph glyph-name="uni04D2" unicode="&#x4d2;" horiz-adv-x="1822" 
d="M350 455l-176 -455h-80l524 1337q30 77 95 129q68 50 153 50q89 0 154 -50t96 -129l522 -1337h-77l-179 455h-1032zM866 1444q-60 0 -107.5 -35.5t-72.5 -97.5l-307 -783h975l-307 783q-23 62 -71.5 97.5t-109.5 35.5zM743 1661h-73v174h73v-174zM1071 1661h-74v174h74
v-174z" />
    <glyph glyph-name="uni04D3" unicode="&#x4d3;" horiz-adv-x="1822" 
d="M727 1311l-512 -1311h-80l524 1337q30 77 95 129q68 50 153 50q89 0 154 -50t96 -129l522 -1337h-77l-179 455h-868v73h840l-308 783q-23 62 -71 97.5t-109 35.5q-60 0 -107.5 -35.5t-72.5 -97.5zM784 1577h-73v174h73v-174zM1112 1577h-74v174h74v-174z" />
    <glyph glyph-name="uni04D4" unicode="&#x4d4;" 
 />
    <glyph glyph-name="uni04DB" unicode="&#x4db;" 
 />
    <glyph glyph-name="uni04DC" unicode="&#x4dc;" horiz-adv-x="3112" 
d="M2396 735q45 -35 107 -129l422 -606h-89l-393 565q-58 85 -96 116.5t-100 31.5h-678v-713h-72v713h-678q-62 0 -100 -31.5t-96 -116.5l-394 -565h-88l422 606q62 94 107 129q9 9 18 15q-3 2 -9 7t-9 7q-46 38 -107 131l-424 606h90l394 -565q58 -86 96 -118t100 -32h678
v715h72v-715h678q62 0 100 32t96 118l393 565h91l-424 -606q-61 -93 -107 -131q-3 -2 -9 -7t-9 -7q9 -6 18 -15zM1430 1661h-74v174h74v-174zM1757 1661h-74v174h74v-174z" />
    <glyph glyph-name="uni04DD" unicode="&#x4dd;" horiz-adv-x="3112" 
d="M1569 1501v-1501h-72v713h-678q-62 0 -100 -31.5t-96 -116.5l-394 -565h-88l422 606q62 94 107 129q9 9 18 15q-3 2 -9 7t-9 7q-46 38 -107 131l-424 606h90l394 -565q58 -86 96 -118t100 -32h678v715h72zM1642 713v73h605q62 0 100 32t96 118l393 565h91l-424 -606
q-61 -93 -107 -131q-3 -2 -9 -7t-9 -7q9 -6 18 -15q45 -35 107 -129l422 -606h-89l-393 565q-58 85 -96 116.5t-100 31.5h-605zM1409 1587h-74v174h74v-174zM1737 1587h-74v174h74v-174z" />
    <glyph glyph-name="uni04DE" unicode="&#x4de;" horiz-adv-x="1816" 
d="M1602 999q0 -68 -33.5 -126.5t-89.5 -92.5q56 -34 89.5 -92.5t33.5 -126.5v-305q0 -106 -75 -181t-181 -75h-924q-106 0 -181 75t-75 181h72q0 -75 54 -128.5t130 -53.5h924q76 0 130 53.5t54 128.5v305q0 75 -53.5 128.5t-128.5 53.5h-2h-924v74h924h2q75 0 128.5 53.5
t53.5 128.5v246q0 77 -54 131t-130 54h-924q-76 0 -130 -54t-54 -131h-72q0 106 75 182t181 76h924q106 0 181 -76t75 -182v-246zM780 1661h-73v174h73v-174zM1108 1661h-74v174h74v-174z" />
    <glyph glyph-name="uni04DF" unicode="&#x4df;" horiz-adv-x="1816" 
d="M1602 999q0 -68 -33.5 -126.5t-89.5 -92.5q56 -34 89.5 -92.5t33.5 -126.5v-305q0 -106 -75 -181t-181 -75h-924q-106 0 -181 75t-75 181h72q0 -75 54 -128.5t130 -53.5h924q76 0 130 53.5t54 128.5v305q0 75 -53.5 128.5t-128.5 53.5h-2h-924v74h924h2q75 0 128.5 53.5
t53.5 128.5v246q0 77 -54 131t-130 54h-924q-76 0 -130 -54t-54 -131h-72q0 106 75 182t181 76h924q106 0 181 -76t75 -182v-246zM780 1591h-73v174h73v-174zM1108 1591h-74v174h74v-174z" />
    <glyph glyph-name="uni04E2" unicode="&#x4e2;" horiz-adv-x="1918" 
d="M238 1501v-1364q0 -55 41 -67q21 -7 47 1.5t43 34.5h2l1003 1326q29 43 80 59q44 17 94 4q40 -12 66 -49q26 -41 26 -90v-1364h-73v1364q0 57 -41 69q-22 7 -47.5 -1.5t-44.5 -34.5v-3l-1006 -1323q-28 -45 -78 -61q-47 -18 -94 -2q-46 14 -66 47q-26 36 -26 90v1364h74z
M584 1583v74h663v-74h-663z" />
    <glyph glyph-name="uni04E3" unicode="&#x4e3;" horiz-adv-x="1837" 
d="M238 1501v-1364q0 -55 41 -67q21 -7 47 1.5t43 34.5h2l1003 1326q29 43 80 59q44 17 94 4q40 -12 66 -49q26 -41 26 -90v-1364h-73v1364q0 57 -41 69q-22 7 -47.5 -1.5t-44.5 -34.5v-3l-1006 -1323q-28 -45 -78 -61q-47 -18 -94 -2q-46 14 -66 47q-26 36 -26 90v1364h74z
M565 1585v74h664v-74h-664z" />
    <glyph glyph-name="uni04E4" unicode="&#x4e4;" horiz-adv-x="1918" 
d="M238 1501v-1364q0 -55 41 -67q21 -7 47 1.5t43 34.5h2l1003 1326q29 43 80 59q44 17 94 4q40 -12 66 -49q26 -41 26 -90v-1364h-73v1364q0 57 -41 69q-22 7 -47.5 -1.5t-44.5 -34.5v-3l-1006 -1323q-28 -45 -78 -61q-47 -18 -94 -2q-46 14 -66 47q-26 36 -26 90v1364h74z
M729 1579h-74v174h74v-174zM1057 1579h-74v174h74v-174z" />
    <glyph glyph-name="uni04E5" unicode="&#x4e5;" horiz-adv-x="1837" 
d="M238 1501v-1364q0 -55 41 -67q21 -7 47 1.5t43 34.5h2l1003 1326q29 43 80 59q44 17 94 4q40 -12 66 -49q26 -41 26 -90v-1364h-73v1364q0 57 -41 69q-22 7 -47.5 -1.5t-44.5 -34.5v-3l-1006 -1323q-28 -45 -78 -61q-47 -18 -94 -2q-46 14 -66 47q-26 36 -26 90v1364h74z
M782 1501h-73v174h73v-174zM1110 1501h-74v174h74v-174z" />
    <glyph glyph-name="uni04E6" unicode="&#x4e6;" horiz-adv-x="2236" 
d="M1522 0h-969q-161 0 -275 114t-114 275v723q0 161 114 276t275 115h969q161 0 275 -115t114 -276v-723q0 -161 -114 -275t-275 -114zM1522 1430h-969q-130 0 -223.5 -93.5t-93.5 -224.5v-723q0 -130 93 -222.5t224 -92.5h969q131 0 224 92.5t93 222.5v723
q0 131 -93.5 224.5t-223.5 93.5zM909 1661h-73v174h73v-174zM1237 1661h-74v174h74v-174z" />
    <glyph glyph-name="uni04E7" unicode="&#x4e7;" horiz-adv-x="2187" 
d="M1522 0h-969q-161 0 -275 114t-114 275v723q0 161 114 276t275 115h969q161 0 275 -115t114 -276v-723q0 -161 -114 -275t-275 -114zM1522 1430h-969q-130 0 -223.5 -93.5t-93.5 -224.5v-723q0 -130 93 -222.5t224 -92.5h969q131 0 224 92.5t93 222.5v723
q0 131 -93.5 224.5t-223.5 93.5zM924 1587h-74v174h74v-174zM1251 1587h-73v174h73v-174z" />
    <glyph glyph-name="uni04EC" unicode="&#x4ec;" horiz-adv-x="1953" 
d="M1540 1260q123 -213 123 -508q0 -297 -123 -510q-65 -110 -160 -174q-103 -68 -227 -68h-989v74h989q204 0 324 205q103 174 112 436h-1423v71h1423q-9 264 -112 437q-119 204 -324 204h-989v74h989q126 0 227 -67q95 -64 160 -174zM682 1583h-74v174h74v-174zM1010 1583
h-74v174h74v-174z" />
    <glyph glyph-name="uni04ED" unicode="&#x4ed;" horiz-adv-x="1953" 
d="M1540 1260q123 -213 123 -508q0 -297 -123 -510q-65 -110 -160 -174q-103 -68 -227 -68h-989v74h989q204 0 324 205q103 174 112 436h-1423v71h1423q-9 264 -112 437q-119 204 -324 204h-989v74h989q126 0 227 -67q95 -64 160 -174zM645 1581h-74v174h74v-174zM973 1581
h-74v174h74v-174z" />
    <glyph glyph-name="uni04EE" unicode="&#x4ee;" horiz-adv-x="1939" 
d="M174 1499h72v-659q0 -75 54 -129t130 -54h971q73 0 126 51t56 123v670h74v-661v-11v-571q0 -106 -75 -182t-181 -76h-1190v74h1190q75 0 128.5 54t53.5 130v401q-75 -75 -182 -75h-971q-106 0 -181 75t-75 181v659zM1657 1501h-74h74zM637 1702v74h663v-74h-663z" />
    <glyph glyph-name="uni04EF" unicode="&#x4ef;" horiz-adv-x="1939" 
d="M174 1499h72v-659q0 -75 54 -129t130 -54h971q73 0 126 51t56 123v670h74v-661v-11v-571q0 -106 -75 -182t-181 -76h-1190v74h1190q75 0 128.5 54t53.5 130v401q-75 -75 -182 -75h-971q-106 0 -181 75t-75 181v659zM1657 1501h-74h74zM586 1501v74h663v-74h-663z" />
    <glyph glyph-name="uni04F0" unicode="&#x4f0;" horiz-adv-x="1939" 
d="M174 1499h72v-659q0 -75 54 -129t130 -54h971q73 0 126 51t56 123v670h74v-661v-11v-571q0 -106 -75 -182t-181 -76h-1190v74h1190q75 0 128.5 54t53.5 130v401q-75 -75 -182 -75h-971q-106 0 -181 75t-75 181v659zM1657 1501h-74h74zM842 1661h-74v174h74v-174z
M1169 1661h-73v174h73v-174z" />
    <glyph glyph-name="uni04F1" unicode="&#x4f1;" horiz-adv-x="1939" 
d="M174 1499h72v-659q0 -75 54 -129t130 -54h971q73 0 126 51t56 123v670h74v-661v-11v-571q0 -106 -75 -182t-181 -76h-1190v74h1190q75 0 128.5 54t53.5 130v401q-75 -75 -182 -75h-971q-106 0 -181 75t-75 181v659zM1657 1501h-74h74zM778 1505h-73v174h73v-174z
M1106 1505h-74v174h74v-174z" />
    <glyph glyph-name="uni04F4" unicode="&#x4f4;" horiz-adv-x="1884" 
d="M174 1499h72v-708q0 -75 54 -129t130 -54h971q73 0 126 51t56 123v719h74v-721v-780h-74v610q-75 -75 -182 -75h-971q-106 0 -181 75t-75 181v708zM1657 1501h-74h74zM795 1661h-74v174h74v-174zM1122 1661h-73v174h73v-174z" />
    <glyph glyph-name="uni04F5" unicode="&#x4f5;" horiz-adv-x="1884" 
d="M174 1499h72v-708q0 -75 54 -129t130 -54h971q73 0 126 51t56 123v719h74v-721v-780h-74v610q-75 -75 -182 -75h-971q-106 0 -181 75t-75 181v708zM1657 1501h-74h74zM795 1581h-74v174h74v-174zM1122 1581h-73v174h73v-174z" />
    <glyph glyph-name="uni04F8" unicode="&#x4f8;" horiz-adv-x="1851" 
d="M238 926h1050q106 0 181 -75t75 -181v-412q0 -106 -75 -182t-181 -76h-1124v1501h74v-575zM238 852v-778h1050q77 0 131 54t54 130v412q0 75 -54.5 128.5t-130.5 53.5h-1050zM1753 0h-74v1501h74v-1501zM799 1661h-74v174h74v-174zM1126 1661h-73v174h73v-174z" />
    <glyph glyph-name="uni04F9" unicode="&#x4f9;" horiz-adv-x="1851" 
d="M799 1239h-74v174h74v-174zM1126 1239h-73v174h73v-174z" />
    <glyph glyph-name="endash" unicode="&#x2013;" horiz-adv-x="1810" 
d="M164 709v73h1476v-73h-1476z" />
    <glyph glyph-name="emdash" unicode="&#x2014;" horiz-adv-x="2277" 
d="M164 709v73h1984v-73h-1984z" />
    <glyph glyph-name="quoteleft" unicode="&#x2018;" horiz-adv-x="395" 
d="M270 1368h-77l-76 223h78z" />
    <glyph glyph-name="quoteright" unicode="&#x2019;" horiz-adv-x="389" 
d="M117 1368l76 223h77l-75 -223h-78z" />
    <glyph glyph-name="quotesinglbase" unicode="&#x201a;" horiz-adv-x="466" 
d="M158 -135l75 223h78l-75 -223h-78z" />
    <glyph glyph-name="quotedblleft" unicode="&#x201c;" horiz-adv-x="565" 
d="M270 1368h-77l-76 223h78zM434 1368h-78l-75 223h77z" />
    <glyph glyph-name="quotedblright" unicode="&#x201d;" horiz-adv-x="608" 
d="M358 1368h-77l75 223h78zM195 1368h-78l76 223h77z" />
    <glyph glyph-name="quotedblbase" unicode="&#x201e;" horiz-adv-x="569" 
d="M158 -135l75 223h78l-75 -223h-78zM301 -135l76 223h78l-76 -223h-78z" />
    <glyph glyph-name="bullet" unicode="&#x2022;" horiz-adv-x="559" 
d="M164 807q0 46 32 78.5t78 32.5t78.5 -32.5t32.5 -78.5t-32.5 -78.5t-78.5 -32.5t-78 32.5t-32 78.5z" />
    <glyph glyph-name="ellipsis" unicode="&#x2026;" horiz-adv-x="978" 
d="M203 0h-74v174h74v-174zM520 0h-74v174h74v-174zM838 0h-74v174h74v-174z" />
    <glyph glyph-name="Euro" unicode="&#x20ac;" horiz-adv-x="1738" 
d="M678 1427q-205 0 -324 -204q-66 -116 -92 -254h1254v-72h-1266q-8 -63 -8 -145q0 -85 8 -148h1122v-72h-1110q26 -136 92 -253q120 -205 324 -205h907v-74h-907q-124 0 -227 68q-95 64 -160 174q-73 128 -103 290h-270v72h258q-8 98 -8 148q0 51 8 145h-258v72h270
q29 162 103 291q65 110 160 174q101 67 227 67h907v-74h-907z" />
    <glyph glyph-name="commaaccent" horiz-adv-x="1048" 
d="M430 -297l76 223h78l-76 -223h-78z" />
    <glyph glyph-name="Imacron" horiz-adv-x="503" 
d="M260 0h-74v1501h74v-1501zM-104 1585v74h663v-74h-663z" />
    </font>
</defs>
</svg>
